<?xml version="1.0" encoding="utf-8" standalone="no"?>
<!DOCTYPE svg PUBLIC "-//W3C//DTD SVG 1.1//EN"
  "http://www.w3.org/Graphics/SVG/1.1/DTD/svg11.dtd">
<svg xmlns:xlink="http://www.w3.org/1999/xlink" width="174.975565pt" height="121.606493pt" viewBox="0 0 174.975565 121.606493" xmlns="http://www.w3.org/2000/svg" version="1.1">
 <metadata>
  <rdf:RDF xmlns:dc="http://purl.org/dc/elements/1.1/" xmlns:cc="http://creativecommons.org/ns#" xmlns:rdf="http://www.w3.org/1999/02/22-rdf-syntax-ns#">
   <cc:Work>
    <dc:type rdf:resource="http://purl.org/dc/dcmitype/StillImage"/>
    <dc:date>2022-11-01T02:01:20.073803</dc:date>
    <dc:format>image/svg+xml</dc:format>
    <dc:creator>
     <cc:Agent>
      <dc:title>Matplotlib v3.6.1, https://matplotlib.org/</dc:title>
     </cc:Agent>
    </dc:creator>
   </cc:Work>
  </rdf:RDF>
 </metadata>
 <defs>
  <style type="text/css">*{stroke-linejoin: round; stroke-linecap: butt}</style>
 </defs>
 <g id="figure_1">
  <g id="patch_1">
   <path d="M 0 121.606493 
L 174.975565 121.606493 
L 174.975565 0 
L 0 0 
z
" style="fill: #ffffff"/>
  </g>
  <g id="axes_1">
   <g id="patch_2">
    <path d="M 54.768276 79.692787 
L 166.368276 79.692787 
L 166.368276 15.936787 
L 54.768276 15.936787 
z
" style="fill: #ffffff"/>
   </g>
   <g id="matplotlib.axis_1">
    <g id="xtick_1">
     <g id="line2d_1">
      <defs>
       <path id="me2ba558d6f" d="M 0 0 
L 0 -3 
" style="stroke: #000000; stroke-width: 0.5"/>
      </defs>
      <g>
       <use xlink:href="#me2ba558d6f" x="161.562534" y="79.692787" style="stroke: #000000; stroke-width: 0.5"/>
      </g>
     </g>
     <g id="line2d_2">
      <defs>
       <path id="m5b1c17681c" d="M 0 0 
L 0 3 
" style="stroke: #000000; stroke-width: 0.5"/>
      </defs>
      <g>
       <use xlink:href="#m5b1c17681c" x="161.562534" y="15.936787" style="stroke: #000000; stroke-width: 0.5"/>
      </g>
     </g>
     <g id="text_1">
      <!-- $\mathdefault{0.900}$ -->
      <g transform="translate(153.122087 87.343892) scale(0.06 -0.06)">
       <defs>
        <path id="CMR17-30" d="M 2688 2025 
C 2688 2416 2682 3080 2413 3591 
C 2176 4039 1798 4198 1466 4198 
C 1158 4198 768 4058 525 3597 
C 269 3118 243 2524 243 2025 
C 243 1661 250 1106 448 619 
C 723 -39 1216 -128 1466 -128 
C 1760 -128 2208 -7 2470 600 
C 2662 1042 2688 1559 2688 2025 
z
M 1466 -26 
C 1056 -26 813 325 723 812 
C 653 1188 653 1738 653 2096 
C 653 2588 653 2997 736 3387 
C 858 3929 1216 4096 1466 4096 
C 1728 4096 2067 3923 2189 3400 
C 2272 3036 2278 2607 2278 2096 
C 2278 1680 2278 1169 2202 792 
C 2067 95 1690 -26 1466 -26 
z
" transform="scale(0.015625)"/>
        <path id="CMMI12-3a" d="M 1178 307 
C 1178 492 1024 619 870 619 
C 685 619 557 466 557 313 
C 557 128 710 0 864 0 
C 1050 0 1178 153 1178 307 
z
" transform="scale(0.015625)"/>
        <path id="CMR17-39" d="M 2253 1864 
C 2253 464 1670 31 1190 31 
C 1043 31 685 31 538 294 
C 704 268 826 357 826 518 
C 826 692 685 749 595 749 
C 538 749 365 723 365 506 
C 365 71 742 -128 1203 -128 
C 1939 -128 2688 674 2688 2073 
C 2688 3817 1971 4179 1485 4179 
C 851 4179 243 3628 243 2778 
C 243 1991 762 1408 1414 1408 
C 1952 1408 2189 1903 2253 2112 
L 2253 1864 
z
M 1427 1510 
C 1254 1510 1011 1542 813 1922 
C 678 2169 678 2461 678 2771 
C 678 3146 678 3405 858 3684 
C 947 3817 1114 4032 1485 4032 
C 2240 4032 2240 2885 2240 2632 
C 2240 2182 2035 1510 1427 1510 
z
" transform="scale(0.015625)"/>
       </defs>
       <use xlink:href="#CMR17-30" transform="scale(0.996264)"/>
       <use xlink:href="#CMMI12-3a" transform="translate(45.690477 0) scale(0.996264)"/>
       <use xlink:href="#CMR17-39" transform="translate(72.787654 0) scale(0.996264)"/>
       <use xlink:href="#CMR17-30" transform="translate(118.478131 0) scale(0.996264)"/>
       <use xlink:href="#CMR17-30" transform="translate(164.168608 0) scale(0.996264)"/>
      </g>
     </g>
    </g>
    <g id="xtick_2">
     <g id="line2d_3">
      <g>
       <use xlink:href="#me2ba558d6f" x="134.86397" y="79.692787" style="stroke: #000000; stroke-width: 0.5"/>
      </g>
     </g>
     <g id="line2d_4">
      <g>
       <use xlink:href="#m5b1c17681c" x="134.86397" y="15.936787" style="stroke: #000000; stroke-width: 0.5"/>
      </g>
     </g>
     <g id="text_2">
      <!-- $\mathdefault{0.925}$ -->
      <g transform="translate(126.423522 87.343892) scale(0.06 -0.06)">
       <defs>
        <path id="CMR17-32" d="M 2669 989 
L 2554 989 
C 2490 536 2438 459 2413 420 
C 2381 369 1920 369 1830 369 
L 602 369 
C 832 619 1280 1072 1824 1597 
C 2214 1967 2669 2402 2669 3035 
C 2669 3790 2067 4224 1395 4224 
C 691 4224 262 3604 262 3030 
C 262 2780 448 2748 525 2748 
C 589 2748 781 2787 781 3010 
C 781 3207 614 3264 525 3264 
C 486 3264 448 3258 422 3245 
C 544 3790 915 4058 1306 4058 
C 1862 4058 2227 3617 2227 3035 
C 2227 2479 1901 2000 1536 1584 
L 262 146 
L 262 0 
L 2515 0 
L 2669 989 
z
" transform="scale(0.015625)"/>
        <path id="CMR17-35" d="M 730 3692 
C 794 3666 1056 3584 1325 3584 
C 1920 3584 2246 3911 2432 4100 
C 2432 4157 2432 4192 2394 4192 
C 2387 4192 2374 4192 2323 4163 
C 2099 4058 1837 3973 1517 3973 
C 1325 3973 1037 3999 723 4139 
C 653 4171 640 4171 634 4171 
C 602 4171 595 4164 595 4037 
L 595 2203 
C 595 2089 595 2057 659 2057 
C 691 2057 704 2070 736 2114 
C 941 2401 1222 2522 1542 2522 
C 1766 2522 2246 2382 2246 1289 
C 2246 1085 2246 715 2054 421 
C 1894 159 1645 25 1370 25 
C 947 25 518 320 403 814 
C 429 807 480 795 506 795 
C 589 795 749 840 749 1038 
C 749 1210 627 1280 506 1280 
C 358 1280 262 1190 262 1011 
C 262 454 704 -128 1382 -128 
C 2042 -128 2669 440 2669 1264 
C 2669 2030 2170 2624 1549 2624 
C 1222 2624 947 2503 730 2274 
L 730 3692 
z
" transform="scale(0.015625)"/>
       </defs>
       <use xlink:href="#CMR17-30" transform="scale(0.996264)"/>
       <use xlink:href="#CMMI12-3a" transform="translate(45.690477 0) scale(0.996264)"/>
       <use xlink:href="#CMR17-39" transform="translate(72.787654 0) scale(0.996264)"/>
       <use xlink:href="#CMR17-32" transform="translate(118.478131 0) scale(0.996264)"/>
       <use xlink:href="#CMR17-35" transform="translate(164.168608 0) scale(0.996264)"/>
      </g>
     </g>
    </g>
    <g id="xtick_3">
     <g id="line2d_5">
      <g>
       <use xlink:href="#me2ba558d6f" x="108.165405" y="79.692787" style="stroke: #000000; stroke-width: 0.5"/>
      </g>
     </g>
     <g id="line2d_6">
      <g>
       <use xlink:href="#m5b1c17681c" x="108.165405" y="15.936787" style="stroke: #000000; stroke-width: 0.5"/>
      </g>
     </g>
     <g id="text_3">
      <!-- $\mathdefault{0.950}$ -->
      <g transform="translate(99.724958 87.343892) scale(0.06 -0.06)">
       <use xlink:href="#CMR17-30" transform="scale(0.996264)"/>
       <use xlink:href="#CMMI12-3a" transform="translate(45.690477 0) scale(0.996264)"/>
       <use xlink:href="#CMR17-39" transform="translate(72.787654 0) scale(0.996264)"/>
       <use xlink:href="#CMR17-35" transform="translate(118.478131 0) scale(0.996264)"/>
       <use xlink:href="#CMR17-30" transform="translate(164.168608 0) scale(0.996264)"/>
      </g>
     </g>
    </g>
    <g id="xtick_4">
     <g id="line2d_7">
      <g>
       <use xlink:href="#me2ba558d6f" x="81.466841" y="79.692787" style="stroke: #000000; stroke-width: 0.5"/>
      </g>
     </g>
     <g id="line2d_8">
      <g>
       <use xlink:href="#m5b1c17681c" x="81.466841" y="15.936787" style="stroke: #000000; stroke-width: 0.5"/>
      </g>
     </g>
     <g id="text_4">
      <!-- $\mathdefault{0.975}$ -->
      <g transform="translate(73.026393 87.343892) scale(0.06 -0.06)">
       <defs>
        <path id="CMR17-37" d="M 2886 3941 
L 2886 4081 
L 1382 4081 
C 634 4081 621 4165 595 4288 
L 480 4288 
L 294 3094 
L 410 3094 
C 429 3215 474 3540 550 3661 
C 589 3712 1062 3712 1171 3712 
L 2579 3712 
L 1869 2661 
C 1395 1954 1069 999 1069 165 
C 1069 89 1069 -128 1299 -128 
C 1530 -128 1530 89 1530 171 
L 1530 465 
C 1530 1508 1709 2196 2003 2636 
L 2886 3941 
z
" transform="scale(0.015625)"/>
       </defs>
       <use xlink:href="#CMR17-30" transform="scale(0.996264)"/>
       <use xlink:href="#CMMI12-3a" transform="translate(45.690477 0) scale(0.996264)"/>
       <use xlink:href="#CMR17-39" transform="translate(72.787654 0) scale(0.996264)"/>
       <use xlink:href="#CMR17-37" transform="translate(118.478131 0) scale(0.996264)"/>
       <use xlink:href="#CMR17-35" transform="translate(164.168608 0) scale(0.996264)"/>
      </g>
     </g>
    </g>
    <g id="xtick_5">
     <g id="line2d_9">
      <g>
       <use xlink:href="#me2ba558d6f" x="54.768276" y="79.692787" style="stroke: #000000; stroke-width: 0.5"/>
      </g>
     </g>
     <g id="line2d_10">
      <g>
       <use xlink:href="#m5b1c17681c" x="54.768276" y="15.936787" style="stroke: #000000; stroke-width: 0.5"/>
      </g>
     </g>
     <g id="text_5">
      <!-- $\mathdefault{1.000}$ -->
      <g transform="translate(46.327828 87.343892) scale(0.06 -0.06)">
       <defs>
        <path id="CMR17-31" d="M 1702 4058 
C 1702 4192 1696 4192 1606 4192 
C 1357 3916 979 3827 621 3827 
C 602 3827 570 3827 563 3808 
C 557 3795 557 3782 557 3648 
C 755 3648 1088 3686 1344 3839 
L 1344 461 
C 1344 236 1331 160 781 160 
L 589 160 
L 589 0 
C 896 0 1216 0 1523 0 
C 1830 0 2150 0 2458 0 
L 2458 160 
L 2266 160 
C 1715 160 1702 230 1702 458 
L 1702 4058 
z
" transform="scale(0.015625)"/>
       </defs>
       <use xlink:href="#CMR17-31" transform="scale(0.996264)"/>
       <use xlink:href="#CMMI12-3a" transform="translate(45.690477 0) scale(0.996264)"/>
       <use xlink:href="#CMR17-30" transform="translate(72.787654 0) scale(0.996264)"/>
       <use xlink:href="#CMR17-30" transform="translate(118.478131 0) scale(0.996264)"/>
       <use xlink:href="#CMR17-30" transform="translate(164.168608 0) scale(0.996264)"/>
      </g>
     </g>
    </g>
    <g id="xtick_6"/>
    <g id="xtick_7"/>
    <g id="xtick_8"/>
    <g id="xtick_9"/>
    <g id="xtick_10"/>
    <g id="xtick_11"/>
    <g id="xtick_12"/>
    <g id="xtick_13"/>
    <g id="xtick_14"/>
    <g id="xtick_15"/>
    <g id="xtick_16"/>
    <g id="xtick_17"/>
    <g id="xtick_18"/>
    <g id="xtick_19"/>
    <g id="xtick_20"/>
    <g id="xtick_21"/>
    <g id="text_6">
     <!-- $F_b(\texttt{iSwap})$ -->
     <g transform="translate(93.839885 97.736591) scale(0.07 -0.07)">
      <defs>
       <path id="CMMI12-46" d="M 1901 2055 
L 2515 2055 
C 3002 2055 3040 1946 3040 1761 
C 3040 1678 3027 1589 2995 1448 
C 2982 1423 2976 1391 2976 1378 
C 2976 1333 3002 1308 3046 1308 
C 3098 1308 3104 1333 3130 1435 
L 3501 2935 
C 3501 2961 3482 2999 3437 2999 
C 3379 2999 3373 2974 3347 2863 
C 3213 2376 3085 2240 2528 2240 
L 1946 2240 
L 2362 3926 
C 2419 4154 2432 4154 2694 4154 
L 3552 4154 
C 4352 4154 4467 3918 4467 3464 
C 4467 3426 4467 3285 4448 3119 
C 4442 3094 4429 3011 4429 2985 
C 4429 2934 4461 2915 4499 2915 
C 4544 2915 4570 2941 4582 3055 
L 4717 4174 
C 4717 4195 4730 4263 4730 4277 
C 4730 4352 4672 4352 4557 4352 
L 1523 4352 
C 1402 4352 1338 4352 1338 4229 
C 1338 4154 1382 4154 1491 4154 
C 1888 4154 1888 4113 1888 4050 
C 1888 4018 1882 3992 1862 3922 
L 998 473 
C 941 249 928 185 480 185 
C 358 185 294 185 294 70 
C 294 0 352 0 390 0 
C 512 0 640 0 762 0 
L 1594 0 
C 1734 0 1888 0 2029 0 
C 2086 0 2163 0 2163 115 
C 2163 185 2125 185 1984 185 
C 1478 185 1466 229 1466 324 
C 1466 356 1478 406 1491 449 
L 1901 2055 
z
" transform="scale(0.015625)"/>
       <path id="CMMI12-62" d="M 1478 4257 
C 1485 4283 1498 4321 1498 4352 
C 1498 4416 1434 4416 1421 4416 
C 1414 4416 1184 4393 1069 4377 
C 960 4377 864 4358 749 4358 
C 595 4345 550 4339 550 4224 
C 550 4160 614 4160 678 4160 
C 1005 4160 1005 4103 1005 4040 
C 1005 3996 954 3811 928 3696 
L 774 3085 
C 710 2831 346 1387 320 1272 
C 288 1114 288 1005 288 922 
C 288 274 653 -64 1069 -64 
C 1811 -64 2579 888 2579 1814 
C 2579 2401 2246 2816 1766 2816 
C 1434 2816 1133 2542 1011 2414 
L 1478 4257 
z
M 1075 64 
C 870 64 646 217 646 715 
C 646 926 666 1047 781 1494 
C 800 1577 902 1986 928 2069 
C 941 2120 1318 2689 1754 2689 
C 2035 2689 2163 2408 2163 2076 
C 2163 1769 1984 1047 1824 715 
C 1664 370 1370 64 1075 64 
z
" transform="scale(0.015625)"/>
       <path id="CMR17-28" d="M 1958 -1561 
C 1958 -1555 1958 -1542 1939 -1523 
C 1645 -1224 858 -407 858 1581 
C 858 3569 1632 4379 1946 4697 
C 1946 4704 1958 4717 1958 4736 
C 1958 4755 1939 4768 1914 4768 
C 1843 4768 1299 4296 986 3594 
C 666 2887 576 2199 576 1588 
C 576 1128 621 351 1005 -471 
C 1312 -1135 1837 -1600 1914 -1600 
C 1946 -1600 1958 -1587 1958 -1561 
z
" transform="scale(0.015625)"/>
       <path id="CMTT12-69" d="M 1933 3616 
C 1933 3776 1805 3904 1645 3904 
C 1485 3904 1357 3776 1357 3616 
C 1357 3456 1485 3328 1645 3328 
C 1805 3328 1933 3456 1933 3616 
z
M 832 2752 
C 742 2752 576 2752 576 2567 
C 576 2381 742 2381 832 2381 
L 1517 2381 
L 1517 371 
L 787 371 
C 698 371 525 371 525 186 
C 525 0 698 0 787 0 
L 2566 0 
C 2656 0 2822 0 2822 186 
C 2822 371 2656 371 2566 371 
L 1933 371 
L 1933 2491 
C 1933 2688 1894 2752 1677 2752 
L 832 2752 
z
" transform="scale(0.015625)"/>
       <path id="CMTT12-53" d="M 2797 3757 
C 2797 3859 2797 4000 2618 4000 
C 2483 4000 2470 3949 2394 3680 
C 2080 3955 1715 4000 1491 4000 
C 813 4000 326 3514 326 2951 
C 326 2573 550 2323 589 2285 
C 858 2016 966 1991 1638 1831 
C 2118 1722 2227 1696 2387 1517 
C 2502 1376 2566 1216 2566 1037 
C 2566 691 2291 307 1786 307 
C 1235 307 774 544 742 1107 
C 736 1203 730 1312 538 1312 
C 326 1312 326 1191 326 1063 
L 326 179 
C 326 77 326 -64 506 -64 
C 640 -64 653 -13 730 256 
C 1082 -19 1523 -64 1786 -64 
C 2509 -64 2963 493 2963 1063 
C 2963 1511 2688 1792 2669 1818 
C 2413 2080 2291 2106 1645 2259 
C 1498 2298 1248 2355 1197 2368 
C 934 2464 723 2688 723 2976 
C 723 3315 1043 3629 1485 3629 
C 1965 3629 2291 3373 2374 2829 
C 2394 2707 2406 2624 2586 2624 
C 2797 2624 2797 2739 2797 2867 
L 2797 3757 
z
" transform="scale(0.015625)"/>
       <path id="CMTT12-77" d="M 2880 2381 
C 3034 2381 3194 2381 3194 2567 
C 3194 2752 3021 2752 2931 2752 
L 2214 2752 
C 2125 2752 1952 2752 1952 2567 
C 1952 2381 2125 2381 2214 2381 
L 2515 2381 
L 2195 434 
L 2189 434 
C 2163 601 2061 958 1997 1162 
C 1882 1577 1862 1654 1651 1654 
C 1446 1654 1421 1577 1306 1168 
C 1178 734 1133 549 1114 434 
L 1107 434 
L 774 2381 
L 1075 2381 
C 1165 2381 1338 2381 1338 2567 
C 1338 2752 1165 2752 1075 2752 
L 358 2752 
C 269 2752 96 2752 96 2567 
C 96 2381 256 2381 410 2381 
L 794 210 
C 832 -13 934 -32 1082 -32 
C 1331 -32 1344 19 1472 460 
C 1530 683 1632 1034 1651 1207 
L 1658 1207 
C 1664 1123 1696 945 1830 453 
C 1958 26 1971 -32 2214 -32 
C 2323 -32 2451 -32 2496 204 
L 2880 2381 
z
" transform="scale(0.015625)"/>
       <path id="CMTT12-61" d="M 2650 1816 
C 2650 2303 2285 2816 1421 2816 
C 1152 2816 531 2816 531 2380 
C 531 2210 653 2115 794 2115 
C 832 2115 1043 2115 1050 2388 
C 1050 2419 1056 2426 1190 2438 
C 1267 2445 1350 2445 1427 2445 
C 1574 2445 1792 2445 2003 2282 
C 2234 2100 2234 1916 2234 1728 
C 1856 1728 1485 1728 1088 1599 
C 768 1489 358 1256 358 816 
C 358 356 762 -32 1357 -32 
C 1562 -32 1958 0 2291 226 
C 2419 0 2739 0 2982 0 
C 3136 0 3290 0 3290 183 
C 3290 365 3123 365 3034 365 
C 2867 365 2739 378 2650 417 
L 2650 1816 
z
M 2234 851 
C 2234 704 2234 569 1971 448 
C 1747 339 1446 339 1427 339 
C 1050 339 774 544 774 806 
C 774 1184 1459 1401 2234 1401 
L 2234 851 
z
" transform="scale(0.015625)"/>
       <path id="CMTT12-70" d="M 1293 -1408 
C 1382 -1408 1549 -1408 1549 -1222 
C 1549 -1037 1382 -1037 1293 -1037 
L 1030 -1037 
L 1030 326 
C 1184 153 1421 -32 1779 -32 
C 2458 -32 3053 579 3053 1395 
C 3053 2186 2515 2816 1850 2816 
C 1382 2816 1088 2533 1030 2469 
C 1030 2664 1030 2752 774 2752 
L 352 2752 
C 262 2752 96 2752 96 2567 
C 96 2381 262 2381 352 2381 
L 614 2381 
L 614 -1037 
L 352 -1037 
C 262 -1037 96 -1037 96 -1222 
C 96 -1408 262 -1408 352 -1408 
L 1293 -1408 
z
M 1030 1717 
C 1030 2084 1389 2445 1805 2445 
C 2266 2445 2637 1974 2637 1395 
C 2637 777 2202 339 1747 339 
C 1267 339 1030 886 1030 1208 
L 1030 1717 
z
" transform="scale(0.015625)"/>
       <path id="CMR17-29" d="M 1683 1581 
C 1683 2040 1638 2817 1254 3639 
C 947 4303 422 4768 346 4768 
C 326 4768 301 4761 301 4729 
C 301 4717 307 4710 314 4697 
C 621 4378 1402 3568 1402 1584 
C 1402 -407 627 -1217 314 -1537 
C 307 -1549 301 -1556 301 -1568 
C 301 -1600 326 -1600 346 -1600 
C 416 -1600 960 -1128 1274 -426 
C 1594 281 1683 969 1683 1581 
z
" transform="scale(0.015625)"/>
      </defs>
      <use xlink:href="#CMMI12-46" transform="scale(0.996264)"/>
      <use xlink:href="#CMMI12-62" transform="translate(63.148204 -14.943915) scale(0.697382)"/>
      <use xlink:href="#CMR17-28" transform="translate(92.679323 0) scale(0.996264)"/>
      <use xlink:href="#CMTT12-69" transform="translate(127.960091 0) scale(0.996264)"/>
      <use xlink:href="#CMTT12-53" transform="translate(179.226202 0) scale(0.996264)"/>
      <use xlink:href="#CMTT12-77" transform="translate(230.492313 0) scale(0.996264)"/>
      <use xlink:href="#CMTT12-61" transform="translate(281.758424 0) scale(0.996264)"/>
      <use xlink:href="#CMTT12-70" transform="translate(333.024534 0) scale(0.996264)"/>
      <use xlink:href="#CMR17-29" transform="translate(384.290645 0) scale(0.996264)"/>
     </g>
    </g>
   </g>
   <g id="matplotlib.axis_2">
    <g id="ytick_1">
     <g id="line2d_11">
      <defs>
       <path id="md3f7dbc28b" d="M 0 0 
L 3 0 
" style="stroke: #000000; stroke-width: 0.5"/>
      </defs>
      <g>
       <use xlink:href="#md3f7dbc28b" x="54.768276" y="74.34253" style="stroke: #000000; stroke-width: 0.5"/>
      </g>
     </g>
     <g id="line2d_12">
      <defs>
       <path id="ma8df6a1532" d="M 0 0 
L -3 0 
" style="stroke: #000000; stroke-width: 0.5"/>
      </defs>
      <g>
       <use xlink:href="#ma8df6a1532" x="166.368276" y="74.34253" style="stroke: #000000; stroke-width: 0.5"/>
      </g>
     </g>
     <g id="text_7">
      <!-- $\mathdefault{0.900}$ -->
      <g transform="translate(34.387381 76.418082) scale(0.06 -0.06)">
       <use xlink:href="#CMR17-30" transform="scale(0.996264)"/>
       <use xlink:href="#CMMI12-3a" transform="translate(45.690477 0) scale(0.996264)"/>
       <use xlink:href="#CMR17-39" transform="translate(72.787654 0) scale(0.996264)"/>
       <use xlink:href="#CMR17-30" transform="translate(118.478131 0) scale(0.996264)"/>
       <use xlink:href="#CMR17-30" transform="translate(164.168608 0) scale(0.996264)"/>
      </g>
     </g>
    </g>
    <g id="ytick_2">
     <g id="line2d_13">
      <g>
       <use xlink:href="#md3f7dbc28b" x="54.768276" y="58.930278" style="stroke: #000000; stroke-width: 0.5"/>
      </g>
     </g>
     <g id="line2d_14">
      <g>
       <use xlink:href="#ma8df6a1532" x="166.368276" y="58.930278" style="stroke: #000000; stroke-width: 0.5"/>
      </g>
     </g>
     <g id="text_8">
      <!-- $\mathdefault{0.925}$ -->
      <g transform="translate(34.387381 61.005831) scale(0.06 -0.06)">
       <use xlink:href="#CMR17-30" transform="scale(0.996264)"/>
       <use xlink:href="#CMMI12-3a" transform="translate(45.690477 0) scale(0.996264)"/>
       <use xlink:href="#CMR17-39" transform="translate(72.787654 0) scale(0.996264)"/>
       <use xlink:href="#CMR17-32" transform="translate(118.478131 0) scale(0.996264)"/>
       <use xlink:href="#CMR17-35" transform="translate(164.168608 0) scale(0.996264)"/>
      </g>
     </g>
    </g>
    <g id="ytick_3">
     <g id="line2d_15">
      <g>
       <use xlink:href="#md3f7dbc28b" x="54.768276" y="43.518026" style="stroke: #000000; stroke-width: 0.5"/>
      </g>
     </g>
     <g id="line2d_16">
      <g>
       <use xlink:href="#ma8df6a1532" x="166.368276" y="43.518026" style="stroke: #000000; stroke-width: 0.5"/>
      </g>
     </g>
     <g id="text_9">
      <!-- $\mathdefault{0.950}$ -->
      <g transform="translate(34.387381 45.593579) scale(0.06 -0.06)">
       <use xlink:href="#CMR17-30" transform="scale(0.996264)"/>
       <use xlink:href="#CMMI12-3a" transform="translate(45.690477 0) scale(0.996264)"/>
       <use xlink:href="#CMR17-39" transform="translate(72.787654 0) scale(0.996264)"/>
       <use xlink:href="#CMR17-35" transform="translate(118.478131 0) scale(0.996264)"/>
       <use xlink:href="#CMR17-30" transform="translate(164.168608 0) scale(0.996264)"/>
      </g>
     </g>
    </g>
    <g id="ytick_4">
     <g id="line2d_17">
      <g>
       <use xlink:href="#md3f7dbc28b" x="54.768276" y="28.105774" style="stroke: #000000; stroke-width: 0.5"/>
      </g>
     </g>
     <g id="line2d_18">
      <g>
       <use xlink:href="#ma8df6a1532" x="166.368276" y="28.105774" style="stroke: #000000; stroke-width: 0.5"/>
      </g>
     </g>
     <g id="text_10">
      <!-- $\mathdefault{0.975}$ -->
      <g transform="translate(34.387381 30.181327) scale(0.06 -0.06)">
       <use xlink:href="#CMR17-30" transform="scale(0.996264)"/>
       <use xlink:href="#CMMI12-3a" transform="translate(45.690477 0) scale(0.996264)"/>
       <use xlink:href="#CMR17-39" transform="translate(72.787654 0) scale(0.996264)"/>
       <use xlink:href="#CMR17-37" transform="translate(118.478131 0) scale(0.996264)"/>
       <use xlink:href="#CMR17-35" transform="translate(164.168608 0) scale(0.996264)"/>
      </g>
     </g>
    </g>
    <g id="ytick_5">
     <g id="line2d_19">
      <defs>
       <path id="m6b5349519e" d="M 0 0 
L 1.5 0 
" style="stroke: #000000; stroke-width: 0.5"/>
      </defs>
      <g>
       <use xlink:href="#m6b5349519e" x="54.768276" y="77.42498" style="stroke: #000000; stroke-width: 0.5"/>
      </g>
     </g>
     <g id="line2d_20">
      <defs>
       <path id="md0a79c2f14" d="M 0 0 
L -1.5 0 
" style="stroke: #000000; stroke-width: 0.5"/>
      </defs>
      <g>
       <use xlink:href="#md0a79c2f14" x="166.368276" y="77.42498" style="stroke: #000000; stroke-width: 0.5"/>
      </g>
     </g>
    </g>
    <g id="ytick_6">
     <g id="line2d_21">
      <g>
       <use xlink:href="#m6b5349519e" x="54.768276" y="71.260079" style="stroke: #000000; stroke-width: 0.5"/>
      </g>
     </g>
     <g id="line2d_22">
      <g>
       <use xlink:href="#md0a79c2f14" x="166.368276" y="71.260079" style="stroke: #000000; stroke-width: 0.5"/>
      </g>
     </g>
    </g>
    <g id="ytick_7">
     <g id="line2d_23">
      <g>
       <use xlink:href="#m6b5349519e" x="54.768276" y="68.177629" style="stroke: #000000; stroke-width: 0.5"/>
      </g>
     </g>
     <g id="line2d_24">
      <g>
       <use xlink:href="#md0a79c2f14" x="166.368276" y="68.177629" style="stroke: #000000; stroke-width: 0.5"/>
      </g>
     </g>
    </g>
    <g id="ytick_8">
     <g id="line2d_25">
      <g>
       <use xlink:href="#m6b5349519e" x="54.768276" y="65.095179" style="stroke: #000000; stroke-width: 0.5"/>
      </g>
     </g>
     <g id="line2d_26">
      <g>
       <use xlink:href="#md0a79c2f14" x="166.368276" y="65.095179" style="stroke: #000000; stroke-width: 0.5"/>
      </g>
     </g>
    </g>
    <g id="ytick_9">
     <g id="line2d_27">
      <g>
       <use xlink:href="#m6b5349519e" x="54.768276" y="62.012728" style="stroke: #000000; stroke-width: 0.5"/>
      </g>
     </g>
     <g id="line2d_28">
      <g>
       <use xlink:href="#md0a79c2f14" x="166.368276" y="62.012728" style="stroke: #000000; stroke-width: 0.5"/>
      </g>
     </g>
    </g>
    <g id="ytick_10">
     <g id="line2d_29">
      <g>
       <use xlink:href="#m6b5349519e" x="54.768276" y="55.847828" style="stroke: #000000; stroke-width: 0.5"/>
      </g>
     </g>
     <g id="line2d_30">
      <g>
       <use xlink:href="#md0a79c2f14" x="166.368276" y="55.847828" style="stroke: #000000; stroke-width: 0.5"/>
      </g>
     </g>
    </g>
    <g id="ytick_11">
     <g id="line2d_31">
      <g>
       <use xlink:href="#m6b5349519e" x="54.768276" y="52.765377" style="stroke: #000000; stroke-width: 0.5"/>
      </g>
     </g>
     <g id="line2d_32">
      <g>
       <use xlink:href="#md0a79c2f14" x="166.368276" y="52.765377" style="stroke: #000000; stroke-width: 0.5"/>
      </g>
     </g>
    </g>
    <g id="ytick_12">
     <g id="line2d_33">
      <g>
       <use xlink:href="#m6b5349519e" x="54.768276" y="49.682927" style="stroke: #000000; stroke-width: 0.5"/>
      </g>
     </g>
     <g id="line2d_34">
      <g>
       <use xlink:href="#md0a79c2f14" x="166.368276" y="49.682927" style="stroke: #000000; stroke-width: 0.5"/>
      </g>
     </g>
    </g>
    <g id="ytick_13">
     <g id="line2d_35">
      <g>
       <use xlink:href="#m6b5349519e" x="54.768276" y="46.600477" style="stroke: #000000; stroke-width: 0.5"/>
      </g>
     </g>
     <g id="line2d_36">
      <g>
       <use xlink:href="#md0a79c2f14" x="166.368276" y="46.600477" style="stroke: #000000; stroke-width: 0.5"/>
      </g>
     </g>
    </g>
    <g id="ytick_14">
     <g id="line2d_37">
      <g>
       <use xlink:href="#m6b5349519e" x="54.768276" y="40.435576" style="stroke: #000000; stroke-width: 0.5"/>
      </g>
     </g>
     <g id="line2d_38">
      <g>
       <use xlink:href="#md0a79c2f14" x="166.368276" y="40.435576" style="stroke: #000000; stroke-width: 0.5"/>
      </g>
     </g>
    </g>
    <g id="ytick_15">
     <g id="line2d_39">
      <g>
       <use xlink:href="#m6b5349519e" x="54.768276" y="37.353125" style="stroke: #000000; stroke-width: 0.5"/>
      </g>
     </g>
     <g id="line2d_40">
      <g>
       <use xlink:href="#md0a79c2f14" x="166.368276" y="37.353125" style="stroke: #000000; stroke-width: 0.5"/>
      </g>
     </g>
    </g>
    <g id="ytick_16">
     <g id="line2d_41">
      <g>
       <use xlink:href="#m6b5349519e" x="54.768276" y="34.270675" style="stroke: #000000; stroke-width: 0.5"/>
      </g>
     </g>
     <g id="line2d_42">
      <g>
       <use xlink:href="#md0a79c2f14" x="166.368276" y="34.270675" style="stroke: #000000; stroke-width: 0.5"/>
      </g>
     </g>
    </g>
    <g id="ytick_17">
     <g id="line2d_43">
      <g>
       <use xlink:href="#m6b5349519e" x="54.768276" y="31.188225" style="stroke: #000000; stroke-width: 0.5"/>
      </g>
     </g>
     <g id="line2d_44">
      <g>
       <use xlink:href="#md0a79c2f14" x="166.368276" y="31.188225" style="stroke: #000000; stroke-width: 0.5"/>
      </g>
     </g>
    </g>
    <g id="ytick_18">
     <g id="line2d_45">
      <g>
       <use xlink:href="#m6b5349519e" x="54.768276" y="25.023324" style="stroke: #000000; stroke-width: 0.5"/>
      </g>
     </g>
     <g id="line2d_46">
      <g>
       <use xlink:href="#md0a79c2f14" x="166.368276" y="25.023324" style="stroke: #000000; stroke-width: 0.5"/>
      </g>
     </g>
    </g>
    <g id="ytick_19">
     <g id="line2d_47">
      <g>
       <use xlink:href="#m6b5349519e" x="54.768276" y="21.940874" style="stroke: #000000; stroke-width: 0.5"/>
      </g>
     </g>
     <g id="line2d_48">
      <g>
       <use xlink:href="#md0a79c2f14" x="166.368276" y="21.940874" style="stroke: #000000; stroke-width: 0.5"/>
      </g>
     </g>
    </g>
    <g id="ytick_20">
     <g id="line2d_49">
      <g>
       <use xlink:href="#m6b5349519e" x="54.768276" y="18.858423" style="stroke: #000000; stroke-width: 0.5"/>
      </g>
     </g>
     <g id="line2d_50">
      <g>
       <use xlink:href="#md0a79c2f14" x="166.368276" y="18.858423" style="stroke: #000000; stroke-width: 0.5"/>
      </g>
     </g>
    </g>
    <g id="text_11">
     <!-- Avg Total Fidelity $F_t$ -->
     <g transform="translate(29.031367 85.43479) rotate(-90) scale(0.07 -0.07)">
      <defs>
       <path id="CMR17-41" d="M 2323 4378 
C 2291 4461 2278 4480 2214 4480 
C 2150 4480 2138 4461 2106 4378 
L 749 566 
C 627 223 371 153 147 153 
L 147 -13 
C 262 0 518 0 640 0 
C 800 0 1056 0 1210 -13 
L 1210 153 
C 909 153 864 361 864 439 
C 864 497 877 530 890 569 
L 1229 1536 
L 2906 1536 
L 3290 442 
C 3322 365 3322 352 3322 327 
C 3322 153 3046 153 2925 153 
L 2925 0 
C 3110 0 3443 0 3642 0 
C 3808 0 4128 0 4282 -13 
L 4282 153 
C 3942 153 3827 153 3744 387 
L 2323 4378 
z
M 2067 3893 
L 2848 1702 
L 1286 1702 
L 2067 3893 
z
" transform="scale(0.015625)"/>
       <path id="CMR17-76" d="M 2502 2163 
C 2560 2304 2662 2560 3034 2560 
L 3034 2726 
C 2912 2726 2752 2726 2630 2726 
C 2496 2726 2285 2726 2157 2732 
L 2157 2566 
C 2317 2553 2406 2477 2406 2311 
C 2406 2253 2406 2240 2368 2151 
L 1664 377 
L 902 2286 
C 864 2369 864 2381 864 2407 
C 864 2560 1075 2560 1171 2560 
L 1171 2732 
C 1018 2726 736 2726 576 2726 
C 403 2726 205 2726 64 2732 
L 64 2560 
C 307 2560 442 2560 518 2362 
L 1446 44 
C 1485 -51 1491 -64 1549 -64 
C 1606 -64 1613 -51 1651 44 
L 2502 2163 
z
" transform="scale(0.015625)"/>
       <path id="CMR17-67" d="M 710 1164 
C 832 1068 1043 960 1299 960 
C 1805 960 2240 1357 2240 1888 
C 2240 2054 2189 2310 1997 2509 
C 2176 2692 2438 2752 2586 2752 
C 2611 2752 2650 2752 2682 2734 
C 2656 2728 2598 2703 2598 2605 
C 2598 2527 2656 2471 2739 2471 
C 2835 2471 2886 2533 2886 2614 
C 2886 2731 2790 2854 2586 2854 
C 2330 2854 2106 2738 1926 2580 
C 1734 2753 1504 2816 1299 2816 
C 794 2816 358 2419 358 1888 
C 358 1522 570 1292 634 1228 
C 442 1004 442 743 442 711 
C 442 545 506 302 723 168 
C 390 85 128 -169 128 -486 
C 128 -943 736 -1280 1466 -1280 
C 2170 -1280 2803 -956 2803 -479 
C 2803 384 1856 384 1363 384 
C 1216 384 954 384 922 391 
C 723 423 589 602 589 826 
C 589 883 589 1024 710 1164 
z
M 1299 1068 
C 736 1068 736 1760 736 1889 
C 736 2016 736 2708 1299 2708 
C 1862 2708 1862 2016 1862 1889 
C 1862 1760 1862 1068 1299 1068 
z
M 1466 -1171 
C 826 -1171 384 -835 384 -486 
C 384 -289 493 -105 634 -4 
C 794 104 858 104 1293 104 
C 1818 104 2547 104 2547 -486 
C 2547 -835 2106 -1171 1466 -1171 
z
" transform="scale(0.015625)"/>
       <path id="CMR17-54" d="M 3981 4326 
L 288 4326 
L 179 2918 
L 294 2918 
C 378 3976 467 4160 1453 4160 
C 1568 4160 1754 4160 1805 4154 
C 1926 4135 1926 4058 1926 3912 
L 1926 459 
C 1926 230 1907 160 1376 160 
L 1197 160 
L 1197 0 
C 1504 0 1824 0 2138 0 
C 2451 0 2771 0 3078 0 
L 3078 160 
L 2899 160 
C 2368 160 2349 230 2349 459 
L 2349 3912 
C 2349 4052 2349 4129 2464 4154 
C 2515 4160 2701 4160 2816 4160 
C 3795 4160 3891 3976 3974 2918 
L 4090 2918 
L 3981 4326 
z
" transform="scale(0.015625)"/>
       <path id="CMR17-6f" d="M 2758 1356 
C 2758 2176 2163 2816 1466 2816 
C 768 2816 173 2176 173 1356 
C 173 551 768 -64 1466 -64 
C 2163 -64 2758 551 2758 1356 
z
M 1466 51 
C 1165 51 909 230 762 480 
C 602 767 582 1126 582 1408 
C 582 1677 595 2010 762 2298 
C 890 2509 1139 2714 1466 2714 
C 1754 2714 1997 2554 2150 2330 
C 2349 2029 2349 1607 2349 1408 
C 2349 1158 2336 775 2163 467 
C 1984 173 1709 51 1466 51 
z
" transform="scale(0.015625)"/>
       <path id="CMR17-74" d="M 966 2560 
L 1862 2560 
L 1862 2725 
L 966 2725 
L 966 3904 
L 851 3904 
C 838 3245 614 2668 70 2668 
L 70 2560 
L 627 2560 
L 627 771 
C 627 650 627 -64 1370 -64 
C 1747 -64 1965 306 1965 777 
L 1965 1140 
L 1850 1140 
L 1850 783 
C 1850 344 1677 51 1408 51 
C 1222 51 966 178 966 758 
L 966 2560 
z
" transform="scale(0.015625)"/>
       <path id="CMR17-61" d="M 2304 1653 
C 2304 2072 2304 2294 2035 2543 
C 1798 2752 1523 2816 1306 2816 
C 800 2816 435 2407 435 1971 
C 435 1728 627 1728 666 1728 
C 749 1728 896 1778 896 1954 
C 896 2112 774 2181 666 2181 
C 640 2181 608 2174 589 2168 
C 723 2592 1069 2714 1293 2714 
C 1613 2714 1965 2429 1965 1885 
L 1965 1600 
C 1587 1600 1133 1549 774 1357 
C 371 1133 256 813 256 570 
C 256 77 832 -64 1171 -64 
C 1523 -64 1850 139 1990 511 
C 2003 233 2182 -18 2464 -18 
C 2598 -18 2938 70 2938 567 
L 2938 920 
L 2822 920 
L 2822 562 
C 2822 178 2650 128 2566 128 
C 2304 128 2304 458 2304 738 
L 2304 1653 
z
M 1965 870 
C 1965 317 1568 38 1216 38 
C 896 38 646 275 646 570 
C 646 761 730 1100 1101 1305 
C 1408 1478 1760 1504 1965 1504 
L 1965 870 
z
" transform="scale(0.015625)"/>
       <path id="CMR17-6c" d="M 979 4396 
L 218 4326 
L 218 4160 
C 595 4160 653 4122 653 3817 
L 653 426 
C 653 184 627 153 218 153 
L 218 -13 
C 371 0 653 0 813 0 
C 979 0 1261 0 1414 -13 
L 1414 153 
C 1005 153 979 178 979 426 
L 979 4396 
z
" transform="scale(0.015625)"/>
       <path id="CMR17-46" d="M 3482 4325 
L 326 4325 
L 326 4160 
C 768 4160 838 4160 838 3874 
L 838 446 
C 838 160 768 160 326 160 
L 326 0 
C 512 0 870 0 1069 0 
C 1331 0 1638 0 1901 0 
L 1901 160 
L 1760 160 
C 1274 160 1261 223 1261 452 
L 1261 2075 
L 1837 2075 
C 2432 2075 2490 1865 2490 1332 
L 2605 1332 
L 2605 2987 
L 2490 2987 
C 2490 2450 2432 2240 1837 2240 
L 1261 2240 
L 1261 3911 
C 1261 4128 1274 4160 1530 4160 
L 2355 4160 
C 3322 4160 3430 3765 3520 2916 
L 3635 2916 
L 3482 4325 
z
" transform="scale(0.015625)"/>
       <path id="CMR17-69" d="M 992 3909 
C 992 4049 877 4170 730 4170 
C 589 4170 467 4056 467 3909 
C 467 3769 582 3648 730 3648 
C 870 3648 992 3763 992 3909 
z
M 243 2706 
L 243 2541 
C 602 2541 653 2502 653 2197 
L 653 427 
C 653 184 627 153 218 153 
L 218 -13 
C 371 0 646 0 806 0 
C 960 0 1222 0 1370 -13 
L 1370 153 
C 992 153 979 191 979 420 
L 979 2776 
L 243 2706 
z
" transform="scale(0.015625)"/>
       <path id="CMR17-64" d="M 1869 4326 
L 1869 4160 
C 2246 4160 2304 4122 2304 3820 
L 2304 2345 
C 2278 2377 2016 2790 1498 2790 
C 845 2790 211 2208 211 1364 
C 211 525 806 -64 1434 -64 
C 1978 -64 2259 337 2291 380 
L 2291 -63 
L 3066 -63 
L 3066 128 
C 2688 128 2630 166 2630 473 
L 2630 4396 
L 1869 4326 
z
M 2291 755 
C 2291 563 2176 390 2029 262 
C 1811 70 1594 38 1472 38 
C 1286 38 621 134 621 1356 
C 621 2612 1363 2688 1530 2688 
C 1824 2688 2061 2522 2208 2291 
C 2291 2157 2291 2138 2291 2023 
L 2291 755 
z
" transform="scale(0.015625)"/>
       <path id="CMR17-65" d="M 2438 1472 
C 2464 1498 2464 1511 2464 1576 
C 2464 2238 2118 2816 1389 2816 
C 710 2816 173 2169 173 1383 
C 173 551 781 -64 1459 -64 
C 2176 -64 2458 607 2458 740 
C 2458 784 2419 784 2406 784 
C 2362 784 2355 771 2330 696 
C 2189 265 1837 51 1504 51 
C 1229 51 954 203 781 480 
C 582 803 582 1176 582 1472 
L 2438 1472 
z
M 589 1568 
C 634 2505 1126 2714 1382 2714 
C 1818 2714 2112 2297 2118 1568 
L 589 1568 
z
" transform="scale(0.015625)"/>
       <path id="CMR17-79" d="M 2496 2197 
C 2656 2586 2944 2586 3034 2586 
L 3034 2752 
C 2912 2752 2752 2752 2630 2752 
C 2496 2752 2285 2752 2157 2758 
L 2157 2592 
C 2400 2573 2406 2394 2406 2343 
C 2406 2280 2394 2248 2362 2171 
L 1664 449 
L 902 2306 
C 870 2382 870 2426 870 2433 
C 870 2573 1018 2586 1171 2586 
L 1171 2758 
C 1018 2752 742 2752 582 2752 
C 410 2752 205 2752 64 2758 
L 64 2586 
C 410 2586 448 2554 531 2350 
L 1485 15 
C 1197 -738 1030 -1178 627 -1178 
C 557 -1178 397 -1159 282 -1044 
C 429 -1031 493 -942 493 -833 
C 493 -725 416 -629 288 -629 
C 147 -629 77 -725 77 -840 
C 77 -1095 339 -1280 627 -1280 
C 998 -1280 1229 -922 1357 -604 
L 2496 2197 
z
" transform="scale(0.015625)"/>
       <path id="CMMI12-74" d="M 1286 2566 
L 1875 2566 
C 1997 2566 2061 2566 2061 2681 
C 2061 2752 2022 2752 1894 2752 
L 1331 2752 
L 1568 3692 
C 1594 3781 1594 3794 1594 3840 
C 1594 3943 1510 4000 1427 4000 
C 1376 4000 1229 3981 1178 3775 
L 928 2752 
L 326 2752 
C 198 2752 141 2752 141 2630 
C 141 2566 186 2566 307 2566 
L 877 2566 
L 454 881 
C 403 658 384 594 384 511 
C 384 211 595 -64 954 -64 
C 1600 -64 1946 868 1946 912 
C 1946 951 1920 970 1882 970 
C 1869 970 1843 970 1830 944 
C 1824 938 1818 931 1773 829 
C 1638 511 1344 64 973 64 
C 781 64 768 224 768 364 
C 768 370 768 492 787 568 
L 1286 2566 
z
" transform="scale(0.015625)"/>
      </defs>
      <use xlink:href="#CMR17-41" transform="scale(0.996264)"/>
      <use xlink:href="#CMR17-76" transform="translate(69.07243 0) scale(0.996264)"/>
      <use xlink:href="#CMR17-67" transform="translate(117.365346 0) scale(0.996264)"/>
      <use xlink:href="#CMR17-54" transform="translate(193.131789 0) scale(0.996264)"/>
      <use xlink:href="#CMR17-6f" transform="translate(251.834414 0) scale(0.996264)"/>
      <use xlink:href="#CMR17-74" transform="translate(297.524891 0) scale(0.996264)"/>
      <use xlink:href="#CMR17-61" transform="translate(332.805659 0) scale(0.996264)"/>
      <use xlink:href="#CMR17-6c" transform="translate(378.496136 0) scale(0.996264)"/>
      <use xlink:href="#CMR17-46" transform="translate(433.443161 0) scale(0.996264)"/>
      <use xlink:href="#CMR17-69" transform="translate(493.427008 0) scale(0.996264)"/>
      <use xlink:href="#CMR17-64" transform="translate(518.298066 0) scale(0.996264)"/>
      <use xlink:href="#CMR17-65" transform="translate(569.193436 0) scale(0.996264)"/>
      <use xlink:href="#CMR17-6c" transform="translate(609.679096 0) scale(0.996264)"/>
      <use xlink:href="#CMR17-69" transform="translate(634.550155 0) scale(0.996264)"/>
      <use xlink:href="#CMR17-74" transform="translate(659.421213 0) scale(0.996264)"/>
      <use xlink:href="#CMR17-79" transform="translate(692.099527 0) scale(0.996264)"/>
      <use xlink:href="#CMMI12-46" transform="translate(770.468409 0) scale(0.996264)"/>
      <use xlink:href="#CMMI12-74" transform="translate(833.616613 -14.943915) scale(0.697382)"/>
     </g>
    </g>
   </g>
   <g id="LineCollection_1">
    <path d="M 161.562534 76.794787 
L 161.562534 73.863384 
" clip-path="url(#p1b12228af6)" style="fill: none; stroke: #1f77b4; stroke-width: 0.5"/>
    <path d="M 150.883109 70.964866 
L 150.883109 68.002525 
" clip-path="url(#p1b12228af6)" style="fill: none; stroke: #1f77b4; stroke-width: 0.5"/>
    <path d="M 140.203683 65.104342 
L 140.203683 62.110901 
" clip-path="url(#p1b12228af6)" style="fill: none; stroke: #1f77b4; stroke-width: 0.5"/>
    <path d="M 129.524257 59.213215 
L 129.524257 56.188511 
" clip-path="url(#p1b12228af6)" style="fill: none; stroke: #1f77b4; stroke-width: 0.5"/>
    <path d="M 118.844831 53.291485 
L 118.844831 50.235355 
" clip-path="url(#p1b12228af6)" style="fill: none; stroke: #1f77b4; stroke-width: 0.5"/>
    <path d="M 108.165405 47.339151 
L 108.165405 44.251434 
" clip-path="url(#p1b12228af6)" style="fill: none; stroke: #1f77b4; stroke-width: 0.5"/>
    <path d="M 97.485979 41.356214 
L 97.485979 38.236747 
" clip-path="url(#p1b12228af6)" style="fill: none; stroke: #1f77b4; stroke-width: 0.5"/>
    <path d="M 86.806554 35.342674 
L 86.806554 32.191294 
" clip-path="url(#p1b12228af6)" style="fill: none; stroke: #1f77b4; stroke-width: 0.5"/>
    <path d="M 76.127128 29.29853 
L 76.127128 26.115076 
" clip-path="url(#p1b12228af6)" style="fill: none; stroke: #1f77b4; stroke-width: 0.5"/>
    <path d="M 65.447702 23.223784 
L 65.447702 20.008092 
" clip-path="url(#p1b12228af6)" style="fill: none; stroke: #1f77b4; stroke-width: 0.5"/>
   </g>
   <g id="line2d_51">
    <defs>
     <path id="m0816b6b395" d="M 1 0 
L -1 -0 
" style="stroke: #1f77b4"/>
    </defs>
    <g clip-path="url(#p1b12228af6)">
     <use xlink:href="#m0816b6b395" x="161.562534" y="76.794787" style="fill: #1f77b4; stroke: #1f77b4"/>
     <use xlink:href="#m0816b6b395" x="150.883109" y="70.964866" style="fill: #1f77b4; stroke: #1f77b4"/>
     <use xlink:href="#m0816b6b395" x="140.203683" y="65.104342" style="fill: #1f77b4; stroke: #1f77b4"/>
     <use xlink:href="#m0816b6b395" x="129.524257" y="59.213215" style="fill: #1f77b4; stroke: #1f77b4"/>
     <use xlink:href="#m0816b6b395" x="118.844831" y="53.291485" style="fill: #1f77b4; stroke: #1f77b4"/>
     <use xlink:href="#m0816b6b395" x="108.165405" y="47.339151" style="fill: #1f77b4; stroke: #1f77b4"/>
     <use xlink:href="#m0816b6b395" x="97.485979" y="41.356214" style="fill: #1f77b4; stroke: #1f77b4"/>
     <use xlink:href="#m0816b6b395" x="86.806554" y="35.342674" style="fill: #1f77b4; stroke: #1f77b4"/>
     <use xlink:href="#m0816b6b395" x="76.127128" y="29.29853" style="fill: #1f77b4; stroke: #1f77b4"/>
     <use xlink:href="#m0816b6b395" x="65.447702" y="23.223784" style="fill: #1f77b4; stroke: #1f77b4"/>
    </g>
   </g>
   <g id="line2d_52">
    <g clip-path="url(#p1b12228af6)">
     <use xlink:href="#m0816b6b395" x="161.562534" y="73.863384" style="fill: #1f77b4; stroke: #1f77b4"/>
     <use xlink:href="#m0816b6b395" x="150.883109" y="68.002525" style="fill: #1f77b4; stroke: #1f77b4"/>
     <use xlink:href="#m0816b6b395" x="140.203683" y="62.110901" style="fill: #1f77b4; stroke: #1f77b4"/>
     <use xlink:href="#m0816b6b395" x="129.524257" y="56.188511" style="fill: #1f77b4; stroke: #1f77b4"/>
     <use xlink:href="#m0816b6b395" x="118.844831" y="50.235355" style="fill: #1f77b4; stroke: #1f77b4"/>
     <use xlink:href="#m0816b6b395" x="108.165405" y="44.251434" style="fill: #1f77b4; stroke: #1f77b4"/>
     <use xlink:href="#m0816b6b395" x="97.485979" y="38.236747" style="fill: #1f77b4; stroke: #1f77b4"/>
     <use xlink:href="#m0816b6b395" x="86.806554" y="32.191294" style="fill: #1f77b4; stroke: #1f77b4"/>
     <use xlink:href="#m0816b6b395" x="76.127128" y="26.115076" style="fill: #1f77b4; stroke: #1f77b4"/>
     <use xlink:href="#m0816b6b395" x="65.447702" y="20.008092" style="fill: #1f77b4; stroke: #1f77b4"/>
    </g>
   </g>
   <g id="LineCollection_2">
    <path d="M 161.562534 65.031275 
L 161.562534 61.122616 
" clip-path="url(#p1b12228af6)" style="fill: none; stroke: #bcbd22; stroke-width: 0.5"/>
    <path d="M 150.883109 61.133862 
L 150.883109 57.198199 
" clip-path="url(#p1b12228af6)" style="fill: none; stroke: #bcbd22; stroke-width: 0.5"/>
    <path d="M 140.203683 57.223032 
L 140.203683 53.260274 
" clip-path="url(#p1b12228af6)" style="fill: none; stroke: #bcbd22; stroke-width: 0.5"/>
    <path d="M 129.524257 53.298785 
L 129.524257 49.308839 
" clip-path="url(#p1b12228af6)" style="fill: none; stroke: #bcbd22; stroke-width: 0.5"/>
    <path d="M 118.844831 49.361123 
L 118.844831 45.343895 
" clip-path="url(#p1b12228af6)" style="fill: none; stroke: #bcbd22; stroke-width: 0.5"/>
    <path d="M 108.165405 45.410044 
L 108.165405 41.365442 
" clip-path="url(#p1b12228af6)" style="fill: none; stroke: #bcbd22; stroke-width: 0.5"/>
    <path d="M 97.485979 38.495818 
L 97.485979 37.258467 
" clip-path="url(#p1b12228af6)" style="fill: none; stroke: #bcbd22; stroke-width: 0.5"/>
    <path d="M 86.806554 32.488869 
L 86.806554 31.238935 
" clip-path="url(#p1b12228af6)" style="fill: none; stroke: #bcbd22; stroke-width: 0.5"/>
    <path d="M 76.127128 26.441333 
L 76.127128 25.178731 
" clip-path="url(#p1b12228af6)" style="fill: none; stroke: #bcbd22; stroke-width: 0.5"/>
    <path d="M 65.447702 20.353073 
L 65.447702 19.077718 
" clip-path="url(#p1b12228af6)" style="fill: none; stroke: #bcbd22; stroke-width: 0.5"/>
   </g>
   <g id="line2d_53">
    <defs>
     <path id="mcce2caa89e" d="M 1 0 
L -1 -0 
" style="stroke: #bcbd22"/>
    </defs>
    <g clip-path="url(#p1b12228af6)">
     <use xlink:href="#mcce2caa89e" x="161.562534" y="65.031275" style="fill: #bcbd22; stroke: #bcbd22"/>
     <use xlink:href="#mcce2caa89e" x="150.883109" y="61.133862" style="fill: #bcbd22; stroke: #bcbd22"/>
     <use xlink:href="#mcce2caa89e" x="140.203683" y="57.223032" style="fill: #bcbd22; stroke: #bcbd22"/>
     <use xlink:href="#mcce2caa89e" x="129.524257" y="53.298785" style="fill: #bcbd22; stroke: #bcbd22"/>
     <use xlink:href="#mcce2caa89e" x="118.844831" y="49.361123" style="fill: #bcbd22; stroke: #bcbd22"/>
     <use xlink:href="#mcce2caa89e" x="108.165405" y="45.410044" style="fill: #bcbd22; stroke: #bcbd22"/>
     <use xlink:href="#mcce2caa89e" x="97.485979" y="38.495818" style="fill: #bcbd22; stroke: #bcbd22"/>
     <use xlink:href="#mcce2caa89e" x="86.806554" y="32.488869" style="fill: #bcbd22; stroke: #bcbd22"/>
     <use xlink:href="#mcce2caa89e" x="76.127128" y="26.441333" style="fill: #bcbd22; stroke: #bcbd22"/>
     <use xlink:href="#mcce2caa89e" x="65.447702" y="20.353073" style="fill: #bcbd22; stroke: #bcbd22"/>
    </g>
   </g>
   <g id="line2d_54">
    <g clip-path="url(#p1b12228af6)">
     <use xlink:href="#mcce2caa89e" x="161.562534" y="61.122616" style="fill: #bcbd22; stroke: #bcbd22"/>
     <use xlink:href="#mcce2caa89e" x="150.883109" y="57.198199" style="fill: #bcbd22; stroke: #bcbd22"/>
     <use xlink:href="#mcce2caa89e" x="140.203683" y="53.260274" style="fill: #bcbd22; stroke: #bcbd22"/>
     <use xlink:href="#mcce2caa89e" x="129.524257" y="49.308839" style="fill: #bcbd22; stroke: #bcbd22"/>
     <use xlink:href="#mcce2caa89e" x="118.844831" y="45.343895" style="fill: #bcbd22; stroke: #bcbd22"/>
     <use xlink:href="#mcce2caa89e" x="108.165405" y="41.365442" style="fill: #bcbd22; stroke: #bcbd22"/>
     <use xlink:href="#mcce2caa89e" x="97.485979" y="37.258467" style="fill: #bcbd22; stroke: #bcbd22"/>
     <use xlink:href="#mcce2caa89e" x="86.806554" y="31.238935" style="fill: #bcbd22; stroke: #bcbd22"/>
     <use xlink:href="#mcce2caa89e" x="76.127128" y="25.178731" style="fill: #bcbd22; stroke: #bcbd22"/>
     <use xlink:href="#mcce2caa89e" x="65.447702" y="19.077718" style="fill: #bcbd22; stroke: #bcbd22"/>
    </g>
   </g>
   <g id="LineCollection_3">
    <path d="M 161.562534 63.959403 
L 161.562534 61.417061 
" clip-path="url(#p1b12228af6)" style="fill: none; stroke: #9467bd; stroke-width: 0.5"/>
    <path d="M 150.883109 59.600367 
L 150.883109 57.038418 
" clip-path="url(#p1b12228af6)" style="fill: none; stroke: #9467bd; stroke-width: 0.5"/>
    <path d="M 140.203683 55.218977 
L 140.203683 52.637321 
" clip-path="url(#p1b12228af6)" style="fill: none; stroke: #9467bd; stroke-width: 0.5"/>
    <path d="M 129.524257 50.815175 
L 129.524257 48.213711 
" clip-path="url(#p1b12228af6)" style="fill: none; stroke: #9467bd; stroke-width: 0.5"/>
    <path d="M 118.844831 46.388905 
L 118.844831 43.767532 
" clip-path="url(#p1b12228af6)" style="fill: none; stroke: #9467bd; stroke-width: 0.5"/>
    <path d="M 108.165405 41.94011 
L 108.165405 39.298727 
" clip-path="url(#p1b12228af6)" style="fill: none; stroke: #9467bd; stroke-width: 0.5"/>
    <path d="M 97.485979 37.468732 
L 97.485979 34.807237 
" clip-path="url(#p1b12228af6)" style="fill: none; stroke: #9467bd; stroke-width: 0.5"/>
    <path d="M 86.806554 32.974714 
L 86.806554 30.293005 
" clip-path="url(#p1b12228af6)" style="fill: none; stroke: #9467bd; stroke-width: 0.5"/>
    <path d="M 76.127128 28.781718 
L 76.127128 25.284104 
" clip-path="url(#p1b12228af6)" style="fill: none; stroke: #9467bd; stroke-width: 0.5"/>
    <path d="M 65.447702 20.361885 
L 65.447702 20.361596 
" clip-path="url(#p1b12228af6)" style="fill: none; stroke: #9467bd; stroke-width: 0.5"/>
   </g>
   <g id="line2d_55">
    <defs>
     <path id="m63dbe5028b" d="M 1 0 
L -1 -0 
" style="stroke: #9467bd"/>
    </defs>
    <g clip-path="url(#p1b12228af6)">
     <use xlink:href="#m63dbe5028b" x="161.562534" y="63.959403" style="fill: #9467bd; stroke: #9467bd"/>
     <use xlink:href="#m63dbe5028b" x="150.883109" y="59.600367" style="fill: #9467bd; stroke: #9467bd"/>
     <use xlink:href="#m63dbe5028b" x="140.203683" y="55.218977" style="fill: #9467bd; stroke: #9467bd"/>
     <use xlink:href="#m63dbe5028b" x="129.524257" y="50.815175" style="fill: #9467bd; stroke: #9467bd"/>
     <use xlink:href="#m63dbe5028b" x="118.844831" y="46.388905" style="fill: #9467bd; stroke: #9467bd"/>
     <use xlink:href="#m63dbe5028b" x="108.165405" y="41.94011" style="fill: #9467bd; stroke: #9467bd"/>
     <use xlink:href="#m63dbe5028b" x="97.485979" y="37.468732" style="fill: #9467bd; stroke: #9467bd"/>
     <use xlink:href="#m63dbe5028b" x="86.806554" y="32.974714" style="fill: #9467bd; stroke: #9467bd"/>
     <use xlink:href="#m63dbe5028b" x="76.127128" y="28.781718" style="fill: #9467bd; stroke: #9467bd"/>
     <use xlink:href="#m63dbe5028b" x="65.447702" y="20.361885" style="fill: #9467bd; stroke: #9467bd"/>
    </g>
   </g>
   <g id="line2d_56">
    <g clip-path="url(#p1b12228af6)">
     <use xlink:href="#m63dbe5028b" x="161.562534" y="61.417061" style="fill: #9467bd; stroke: #9467bd"/>
     <use xlink:href="#m63dbe5028b" x="150.883109" y="57.038418" style="fill: #9467bd; stroke: #9467bd"/>
     <use xlink:href="#m63dbe5028b" x="140.203683" y="52.637321" style="fill: #9467bd; stroke: #9467bd"/>
     <use xlink:href="#m63dbe5028b" x="129.524257" y="48.213711" style="fill: #9467bd; stroke: #9467bd"/>
     <use xlink:href="#m63dbe5028b" x="118.844831" y="43.767532" style="fill: #9467bd; stroke: #9467bd"/>
     <use xlink:href="#m63dbe5028b" x="108.165405" y="39.298727" style="fill: #9467bd; stroke: #9467bd"/>
     <use xlink:href="#m63dbe5028b" x="97.485979" y="34.807237" style="fill: #9467bd; stroke: #9467bd"/>
     <use xlink:href="#m63dbe5028b" x="86.806554" y="30.293005" style="fill: #9467bd; stroke: #9467bd"/>
     <use xlink:href="#m63dbe5028b" x="76.127128" y="25.284104" style="fill: #9467bd; stroke: #9467bd"/>
     <use xlink:href="#m63dbe5028b" x="65.447702" y="20.361596" style="fill: #9467bd; stroke: #9467bd"/>
    </g>
   </g>
   <g id="LineCollection_4">
    <path d="M 161.562534 67.338837 
L 161.562534 61.995721 
" clip-path="url(#p1b12228af6)" style="fill: none; stroke: #d62728; stroke-width: 0.5"/>
    <path d="M 150.883109 63.891946 
L 150.883109 58.516051 
" clip-path="url(#p1b12228af6)" style="fill: none; stroke: #d62728; stroke-width: 0.5"/>
    <path d="M 140.203683 59.954262 
L 140.203683 54.668425 
" clip-path="url(#p1b12228af6)" style="fill: none; stroke: #d62728; stroke-width: 0.5"/>
    <path d="M 129.524257 55.312253 
L 129.524257 49.98331 
" clip-path="url(#p1b12228af6)" style="fill: none; stroke: #d62728; stroke-width: 0.5"/>
    <path d="M 118.844831 50.64191 
L 118.844831 45.269599 
" clip-path="url(#p1b12228af6)" style="fill: none; stroke: #d62728; stroke-width: 0.5"/>
    <path d="M 108.165405 42.942358 
L 108.165405 42.911925 
" clip-path="url(#p1b12228af6)" style="fill: none; stroke: #d62728; stroke-width: 0.5"/>
    <path d="M 97.485979 36.996755 
L 97.485979 36.966013 
" clip-path="url(#p1b12228af6)" style="fill: none; stroke: #d62728; stroke-width: 0.5"/>
    <path d="M 86.806554 31.00301 
L 86.806554 30.971957 
" clip-path="url(#p1b12228af6)" style="fill: none; stroke: #d62728; stroke-width: 0.5"/>
    <path d="M 76.127128 24.960831 
L 76.127128 24.929464 
" clip-path="url(#p1b12228af6)" style="fill: none; stroke: #d62728; stroke-width: 0.5"/>
    <path d="M 65.447702 18.869925 
L 65.447702 18.838242 
" clip-path="url(#p1b12228af6)" style="fill: none; stroke: #d62728; stroke-width: 0.5"/>
   </g>
   <g id="line2d_57">
    <defs>
     <path id="m3f48b17e2d" d="M 1 0 
L -1 -0 
" style="stroke: #d62728"/>
    </defs>
    <g clip-path="url(#p1b12228af6)">
     <use xlink:href="#m3f48b17e2d" x="161.562534" y="67.338837" style="fill: #d62728; stroke: #d62728"/>
     <use xlink:href="#m3f48b17e2d" x="150.883109" y="63.891946" style="fill: #d62728; stroke: #d62728"/>
     <use xlink:href="#m3f48b17e2d" x="140.203683" y="59.954262" style="fill: #d62728; stroke: #d62728"/>
     <use xlink:href="#m3f48b17e2d" x="129.524257" y="55.312253" style="fill: #d62728; stroke: #d62728"/>
     <use xlink:href="#m3f48b17e2d" x="118.844831" y="50.64191" style="fill: #d62728; stroke: #d62728"/>
     <use xlink:href="#m3f48b17e2d" x="108.165405" y="42.942358" style="fill: #d62728; stroke: #d62728"/>
     <use xlink:href="#m3f48b17e2d" x="97.485979" y="36.996755" style="fill: #d62728; stroke: #d62728"/>
     <use xlink:href="#m3f48b17e2d" x="86.806554" y="31.00301" style="fill: #d62728; stroke: #d62728"/>
     <use xlink:href="#m3f48b17e2d" x="76.127128" y="24.960831" style="fill: #d62728; stroke: #d62728"/>
     <use xlink:href="#m3f48b17e2d" x="65.447702" y="18.869925" style="fill: #d62728; stroke: #d62728"/>
    </g>
   </g>
   <g id="line2d_58">
    <g clip-path="url(#p1b12228af6)">
     <use xlink:href="#m3f48b17e2d" x="161.562534" y="61.995721" style="fill: #d62728; stroke: #d62728"/>
     <use xlink:href="#m3f48b17e2d" x="150.883109" y="58.516051" style="fill: #d62728; stroke: #d62728"/>
     <use xlink:href="#m3f48b17e2d" x="140.203683" y="54.668425" style="fill: #d62728; stroke: #d62728"/>
     <use xlink:href="#m3f48b17e2d" x="129.524257" y="49.98331" style="fill: #d62728; stroke: #d62728"/>
     <use xlink:href="#m3f48b17e2d" x="118.844831" y="45.269599" style="fill: #d62728; stroke: #d62728"/>
     <use xlink:href="#m3f48b17e2d" x="108.165405" y="42.911925" style="fill: #d62728; stroke: #d62728"/>
     <use xlink:href="#m3f48b17e2d" x="97.485979" y="36.966013" style="fill: #d62728; stroke: #d62728"/>
     <use xlink:href="#m3f48b17e2d" x="86.806554" y="30.971957" style="fill: #d62728; stroke: #d62728"/>
     <use xlink:href="#m3f48b17e2d" x="76.127128" y="24.929464" style="fill: #d62728; stroke: #d62728"/>
     <use xlink:href="#m3f48b17e2d" x="65.447702" y="18.838242" style="fill: #d62728; stroke: #d62728"/>
    </g>
   </g>
   <g id="LineCollection_5">
    <path d="M 161.562534 64.98145 
L 161.562534 60.918939 
" clip-path="url(#p1b12228af6)" style="fill: none; stroke: #2ca02c; stroke-width: 0.5"/>
    <path d="M 150.883109 61.146615 
L 150.883109 57.056491 
" clip-path="url(#p1b12228af6)" style="fill: none; stroke: #2ca02c; stroke-width: 0.5"/>
    <path d="M 140.203683 56.121877 
L 140.203683 54.132964 
" clip-path="url(#p1b12228af6)" style="fill: none; stroke: #2ca02c; stroke-width: 0.5"/>
    <path d="M 129.524257 51.26545 
L 129.524257 49.259682 
" clip-path="url(#p1b12228af6)" style="fill: none; stroke: #2ca02c; stroke-width: 0.5"/>
    <path d="M 118.844831 46.376153 
L 118.844831 44.353416 
" clip-path="url(#p1b12228af6)" style="fill: none; stroke: #2ca02c; stroke-width: 0.5"/>
    <path d="M 108.165405 41.453821 
L 108.165405 39.414 
" clip-path="url(#p1b12228af6)" style="fill: none; stroke: #2ca02c; stroke-width: 0.5"/>
    <path d="M 97.485979 36.498286 
L 97.485979 34.441266 
" clip-path="url(#p1b12228af6)" style="fill: none; stroke: #2ca02c; stroke-width: 0.5"/>
    <path d="M 86.806554 31.509381 
L 86.806554 29.435046 
" clip-path="url(#p1b12228af6)" style="fill: none; stroke: #2ca02c; stroke-width: 0.5"/>
    <path d="M 76.127128 24.98723 
L 76.127128 24.937636 
" clip-path="url(#p1b12228af6)" style="fill: none; stroke: #2ca02c; stroke-width: 0.5"/>
    <path d="M 65.447702 18.899659 
L 65.447702 18.849565 
" clip-path="url(#p1b12228af6)" style="fill: none; stroke: #2ca02c; stroke-width: 0.5"/>
   </g>
   <g id="line2d_59">
    <defs>
     <path id="m34287a2ce8" d="M 1 0 
L -1 -0 
" style="stroke: #2ca02c"/>
    </defs>
    <g clip-path="url(#p1b12228af6)">
     <use xlink:href="#m34287a2ce8" x="161.562534" y="64.98145" style="fill: #2ca02c; stroke: #2ca02c"/>
     <use xlink:href="#m34287a2ce8" x="150.883109" y="61.146615" style="fill: #2ca02c; stroke: #2ca02c"/>
     <use xlink:href="#m34287a2ce8" x="140.203683" y="56.121877" style="fill: #2ca02c; stroke: #2ca02c"/>
     <use xlink:href="#m34287a2ce8" x="129.524257" y="51.26545" style="fill: #2ca02c; stroke: #2ca02c"/>
     <use xlink:href="#m34287a2ce8" x="118.844831" y="46.376153" style="fill: #2ca02c; stroke: #2ca02c"/>
     <use xlink:href="#m34287a2ce8" x="108.165405" y="41.453821" style="fill: #2ca02c; stroke: #2ca02c"/>
     <use xlink:href="#m34287a2ce8" x="97.485979" y="36.498286" style="fill: #2ca02c; stroke: #2ca02c"/>
     <use xlink:href="#m34287a2ce8" x="86.806554" y="31.509381" style="fill: #2ca02c; stroke: #2ca02c"/>
     <use xlink:href="#m34287a2ce8" x="76.127128" y="24.98723" style="fill: #2ca02c; stroke: #2ca02c"/>
     <use xlink:href="#m34287a2ce8" x="65.447702" y="18.899659" style="fill: #2ca02c; stroke: #2ca02c"/>
    </g>
   </g>
   <g id="line2d_60">
    <g clip-path="url(#p1b12228af6)">
     <use xlink:href="#m34287a2ce8" x="161.562534" y="60.918939" style="fill: #2ca02c; stroke: #2ca02c"/>
     <use xlink:href="#m34287a2ce8" x="150.883109" y="57.056491" style="fill: #2ca02c; stroke: #2ca02c"/>
     <use xlink:href="#m34287a2ce8" x="140.203683" y="54.132964" style="fill: #2ca02c; stroke: #2ca02c"/>
     <use xlink:href="#m34287a2ce8" x="129.524257" y="49.259682" style="fill: #2ca02c; stroke: #2ca02c"/>
     <use xlink:href="#m34287a2ce8" x="118.844831" y="44.353416" style="fill: #2ca02c; stroke: #2ca02c"/>
     <use xlink:href="#m34287a2ce8" x="108.165405" y="39.414" style="fill: #2ca02c; stroke: #2ca02c"/>
     <use xlink:href="#m34287a2ce8" x="97.485979" y="34.441266" style="fill: #2ca02c; stroke: #2ca02c"/>
     <use xlink:href="#m34287a2ce8" x="86.806554" y="29.435046" style="fill: #2ca02c; stroke: #2ca02c"/>
     <use xlink:href="#m34287a2ce8" x="76.127128" y="24.937636" style="fill: #2ca02c; stroke: #2ca02c"/>
     <use xlink:href="#m34287a2ce8" x="65.447702" y="18.849565" style="fill: #2ca02c; stroke: #2ca02c"/>
    </g>
   </g>
   <g id="LineCollection_6">
    <path d="M 161.562534 65.796674 
L 161.562534 64.606329 
" clip-path="url(#p1b12228af6)" style="fill: none; stroke: #e377c2; stroke-width: 0.5"/>
    <path d="M 150.883109 60.879873 
L 150.883109 59.679139 
" clip-path="url(#p1b12228af6)" style="fill: none; stroke: #e377c2; stroke-width: 0.5"/>
    <path d="M 140.203683 55.927365 
L 140.203683 54.716168 
" clip-path="url(#p1b12228af6)" style="fill: none; stroke: #e377c2; stroke-width: 0.5"/>
    <path d="M 129.524257 50.938944 
L 129.524257 49.717207 
" clip-path="url(#p1b12228af6)" style="fill: none; stroke: #e377c2; stroke-width: 0.5"/>
    <path d="M 118.844831 45.914402 
L 118.844831 44.682048 
" clip-path="url(#p1b12228af6)" style="fill: none; stroke: #e377c2; stroke-width: 0.5"/>
    <path d="M 108.165405 40.853528 
L 108.165405 39.610482 
" clip-path="url(#p1b12228af6)" style="fill: none; stroke: #e377c2; stroke-width: 0.5"/>
    <path d="M 97.485979 35.756114 
L 97.485979 34.502298 
" clip-path="url(#p1b12228af6)" style="fill: none; stroke: #e377c2; stroke-width: 0.5"/>
    <path d="M 86.806554 30.621949 
L 86.806554 29.357286 
" clip-path="url(#p1b12228af6)" style="fill: none; stroke: #e377c2; stroke-width: 0.5"/>
    <path d="M 76.127128 25.450822 
L 76.127128 24.175232 
" clip-path="url(#p1b12228af6)" style="fill: none; stroke: #e377c2; stroke-width: 0.5"/>
    <path d="M 65.447702 18.888826 
L 65.447702 18.834787 
" clip-path="url(#p1b12228af6)" style="fill: none; stroke: #e377c2; stroke-width: 0.5"/>
   </g>
   <g id="line2d_61">
    <defs>
     <path id="me3cf415b14" d="M 1 0 
L -1 -0 
" style="stroke: #e377c2"/>
    </defs>
    <g clip-path="url(#p1b12228af6)">
     <use xlink:href="#me3cf415b14" x="161.562534" y="65.796674" style="fill: #e377c2; stroke: #e377c2"/>
     <use xlink:href="#me3cf415b14" x="150.883109" y="60.879873" style="fill: #e377c2; stroke: #e377c2"/>
     <use xlink:href="#me3cf415b14" x="140.203683" y="55.927365" style="fill: #e377c2; stroke: #e377c2"/>
     <use xlink:href="#me3cf415b14" x="129.524257" y="50.938944" style="fill: #e377c2; stroke: #e377c2"/>
     <use xlink:href="#me3cf415b14" x="118.844831" y="45.914402" style="fill: #e377c2; stroke: #e377c2"/>
     <use xlink:href="#me3cf415b14" x="108.165405" y="40.853528" style="fill: #e377c2; stroke: #e377c2"/>
     <use xlink:href="#me3cf415b14" x="97.485979" y="35.756114" style="fill: #e377c2; stroke: #e377c2"/>
     <use xlink:href="#me3cf415b14" x="86.806554" y="30.621949" style="fill: #e377c2; stroke: #e377c2"/>
     <use xlink:href="#me3cf415b14" x="76.127128" y="25.450822" style="fill: #e377c2; stroke: #e377c2"/>
     <use xlink:href="#me3cf415b14" x="65.447702" y="18.888826" style="fill: #e377c2; stroke: #e377c2"/>
    </g>
   </g>
   <g id="line2d_62">
    <g clip-path="url(#p1b12228af6)">
     <use xlink:href="#me3cf415b14" x="161.562534" y="64.606329" style="fill: #e377c2; stroke: #e377c2"/>
     <use xlink:href="#me3cf415b14" x="150.883109" y="59.679139" style="fill: #e377c2; stroke: #e377c2"/>
     <use xlink:href="#me3cf415b14" x="140.203683" y="54.716168" style="fill: #e377c2; stroke: #e377c2"/>
     <use xlink:href="#me3cf415b14" x="129.524257" y="49.717207" style="fill: #e377c2; stroke: #e377c2"/>
     <use xlink:href="#me3cf415b14" x="118.844831" y="44.682048" style="fill: #e377c2; stroke: #e377c2"/>
     <use xlink:href="#me3cf415b14" x="108.165405" y="39.610482" style="fill: #e377c2; stroke: #e377c2"/>
     <use xlink:href="#me3cf415b14" x="97.485979" y="34.502298" style="fill: #e377c2; stroke: #e377c2"/>
     <use xlink:href="#me3cf415b14" x="86.806554" y="29.357286" style="fill: #e377c2; stroke: #e377c2"/>
     <use xlink:href="#me3cf415b14" x="76.127128" y="24.175232" style="fill: #e377c2; stroke: #e377c2"/>
     <use xlink:href="#me3cf415b14" x="65.447702" y="18.834787" style="fill: #e377c2; stroke: #e377c2"/>
    </g>
   </g>
   <g id="line2d_63">
    <path d="M 161.562534 75.329086 
L 150.883109 69.483696 
L 140.203683 63.607622 
L 129.524257 57.700863 
L 118.844831 51.76342 
L 108.165405 45.795292 
L 97.485979 39.79648 
L 86.806554 33.766984 
L 76.127128 27.706803 
L 65.447702 21.615938 
" clip-path="url(#p1b12228af6)" style="fill: none; stroke: #1f77b4; stroke-width: 0.65; stroke-linecap: square"/>
    <defs>
     <path id="m4d6e819be5" d="M 0 0.6 
C 0.159122 0.6 0.311748 0.53678 0.424264 0.424264 
C 0.53678 0.311748 0.6 0.159122 0.6 0 
C 0.6 -0.159122 0.53678 -0.311748 0.424264 -0.424264 
C 0.311748 -0.53678 0.159122 -0.6 0 -0.6 
C -0.159122 -0.6 -0.311748 -0.53678 -0.424264 -0.424264 
C -0.53678 -0.311748 -0.6 -0.159122 -0.6 0 
C -0.6 0.159122 -0.53678 0.311748 -0.424264 0.424264 
C -0.311748 0.53678 -0.159122 0.6 0 0.6 
z
" style="stroke: #1f77b4"/>
    </defs>
    <g clip-path="url(#p1b12228af6)">
     <use xlink:href="#m4d6e819be5" x="161.562534" y="75.329086" style="fill: #1f77b4; stroke: #1f77b4"/>
     <use xlink:href="#m4d6e819be5" x="150.883109" y="69.483696" style="fill: #1f77b4; stroke: #1f77b4"/>
     <use xlink:href="#m4d6e819be5" x="140.203683" y="63.607622" style="fill: #1f77b4; stroke: #1f77b4"/>
     <use xlink:href="#m4d6e819be5" x="129.524257" y="57.700863" style="fill: #1f77b4; stroke: #1f77b4"/>
     <use xlink:href="#m4d6e819be5" x="118.844831" y="51.76342" style="fill: #1f77b4; stroke: #1f77b4"/>
     <use xlink:href="#m4d6e819be5" x="108.165405" y="45.795292" style="fill: #1f77b4; stroke: #1f77b4"/>
     <use xlink:href="#m4d6e819be5" x="97.485979" y="39.79648" style="fill: #1f77b4; stroke: #1f77b4"/>
     <use xlink:href="#m4d6e819be5" x="86.806554" y="33.766984" style="fill: #1f77b4; stroke: #1f77b4"/>
     <use xlink:href="#m4d6e819be5" x="76.127128" y="27.706803" style="fill: #1f77b4; stroke: #1f77b4"/>
     <use xlink:href="#m4d6e819be5" x="65.447702" y="21.615938" style="fill: #1f77b4; stroke: #1f77b4"/>
    </g>
   </g>
   <g id="line2d_64">
    <path d="M 161.562534 63.076946 
L 150.883109 59.16603 
L 140.203683 55.241653 
L 129.524257 51.303812 
L 118.844831 47.352509 
L 108.165405 43.387743 
L 97.485979 37.877142 
L 86.806554 31.863902 
L 76.127128 25.810032 
L 65.447702 19.715396 
" clip-path="url(#p1b12228af6)" style="fill: none; stroke: #bcbd22; stroke-width: 0.65; stroke-linecap: square"/>
    <defs>
     <path id="mdd33474d27" d="M 0 -0.6 
L -0.6 0.6 
L 0.6 0.6 
z
" style="stroke: #bcbd22; stroke-linejoin: miter"/>
    </defs>
    <g clip-path="url(#p1b12228af6)">
     <use xlink:href="#mdd33474d27" x="161.562534" y="63.076946" style="fill: #bcbd22; stroke: #bcbd22; stroke-linejoin: miter"/>
     <use xlink:href="#mdd33474d27" x="150.883109" y="59.16603" style="fill: #bcbd22; stroke: #bcbd22; stroke-linejoin: miter"/>
     <use xlink:href="#mdd33474d27" x="140.203683" y="55.241653" style="fill: #bcbd22; stroke: #bcbd22; stroke-linejoin: miter"/>
     <use xlink:href="#mdd33474d27" x="129.524257" y="51.303812" style="fill: #bcbd22; stroke: #bcbd22; stroke-linejoin: miter"/>
     <use xlink:href="#mdd33474d27" x="118.844831" y="47.352509" style="fill: #bcbd22; stroke: #bcbd22; stroke-linejoin: miter"/>
     <use xlink:href="#mdd33474d27" x="108.165405" y="43.387743" style="fill: #bcbd22; stroke: #bcbd22; stroke-linejoin: miter"/>
     <use xlink:href="#mdd33474d27" x="97.485979" y="37.877142" style="fill: #bcbd22; stroke: #bcbd22; stroke-linejoin: miter"/>
     <use xlink:href="#mdd33474d27" x="86.806554" y="31.863902" style="fill: #bcbd22; stroke: #bcbd22; stroke-linejoin: miter"/>
     <use xlink:href="#mdd33474d27" x="76.127128" y="25.810032" style="fill: #bcbd22; stroke: #bcbd22; stroke-linejoin: miter"/>
     <use xlink:href="#mdd33474d27" x="65.447702" y="19.715396" style="fill: #bcbd22; stroke: #bcbd22; stroke-linejoin: miter"/>
    </g>
   </g>
   <g id="line2d_65">
    <path d="M 161.562534 62.688232 
L 150.883109 58.319393 
L 140.203683 53.928149 
L 129.524257 49.514443 
L 118.844831 45.078219 
L 108.165405 40.619418 
L 97.485979 36.137984 
L 86.806554 31.63386 
L 76.127128 27.032911 
L 65.447702 20.36174 
" clip-path="url(#p1b12228af6)" style="fill: none; stroke: #9467bd; stroke-width: 0.65; stroke-linecap: square"/>
    <defs>
     <path id="macfcad6f83" d="M -0.6 0.6 
L 0.6 0.6 
L 0.6 -0.6 
L -0.6 -0.6 
z
" style="stroke: #9467bd; stroke-linejoin: miter"/>
    </defs>
    <g clip-path="url(#p1b12228af6)">
     <use xlink:href="#macfcad6f83" x="161.562534" y="62.688232" style="fill: #9467bd; stroke: #9467bd; stroke-linejoin: miter"/>
     <use xlink:href="#macfcad6f83" x="150.883109" y="58.319393" style="fill: #9467bd; stroke: #9467bd; stroke-linejoin: miter"/>
     <use xlink:href="#macfcad6f83" x="140.203683" y="53.928149" style="fill: #9467bd; stroke: #9467bd; stroke-linejoin: miter"/>
     <use xlink:href="#macfcad6f83" x="129.524257" y="49.514443" style="fill: #9467bd; stroke: #9467bd; stroke-linejoin: miter"/>
     <use xlink:href="#macfcad6f83" x="118.844831" y="45.078219" style="fill: #9467bd; stroke: #9467bd; stroke-linejoin: miter"/>
     <use xlink:href="#macfcad6f83" x="108.165405" y="40.619418" style="fill: #9467bd; stroke: #9467bd; stroke-linejoin: miter"/>
     <use xlink:href="#macfcad6f83" x="97.485979" y="36.137984" style="fill: #9467bd; stroke: #9467bd; stroke-linejoin: miter"/>
     <use xlink:href="#macfcad6f83" x="86.806554" y="31.63386" style="fill: #9467bd; stroke: #9467bd; stroke-linejoin: miter"/>
     <use xlink:href="#macfcad6f83" x="76.127128" y="27.032911" style="fill: #9467bd; stroke: #9467bd; stroke-linejoin: miter"/>
     <use xlink:href="#macfcad6f83" x="65.447702" y="20.36174" style="fill: #9467bd; stroke: #9467bd; stroke-linejoin: miter"/>
    </g>
   </g>
   <g id="line2d_66">
    <path d="M 161.562534 64.667279 
L 150.883109 61.203998 
L 140.203683 57.311343 
L 129.524257 52.647781 
L 118.844831 47.955754 
L 108.165405 42.927141 
L 97.485979 36.981384 
L 86.806554 30.987483 
L 76.127128 24.945148 
L 65.447702 18.854083 
" clip-path="url(#p1b12228af6)" style="fill: none; stroke: #d62728; stroke-width: 0.65; stroke-linecap: square"/>
    <defs>
     <path id="m8edbca2e85" d="M -0 0.848528 
L 0.509117 0 
L 0 -0.848528 
L -0.509117 -0 
z
" style="stroke: #d62728; stroke-linejoin: miter"/>
    </defs>
    <g clip-path="url(#p1b12228af6)">
     <use xlink:href="#m8edbca2e85" x="161.562534" y="64.667279" style="fill: #d62728; stroke: #d62728; stroke-linejoin: miter"/>
     <use xlink:href="#m8edbca2e85" x="150.883109" y="61.203998" style="fill: #d62728; stroke: #d62728; stroke-linejoin: miter"/>
     <use xlink:href="#m8edbca2e85" x="140.203683" y="57.311343" style="fill: #d62728; stroke: #d62728; stroke-linejoin: miter"/>
     <use xlink:href="#m8edbca2e85" x="129.524257" y="52.647781" style="fill: #d62728; stroke: #d62728; stroke-linejoin: miter"/>
     <use xlink:href="#m8edbca2e85" x="118.844831" y="47.955754" style="fill: #d62728; stroke: #d62728; stroke-linejoin: miter"/>
     <use xlink:href="#m8edbca2e85" x="108.165405" y="42.927141" style="fill: #d62728; stroke: #d62728; stroke-linejoin: miter"/>
     <use xlink:href="#m8edbca2e85" x="97.485979" y="36.981384" style="fill: #d62728; stroke: #d62728; stroke-linejoin: miter"/>
     <use xlink:href="#m8edbca2e85" x="86.806554" y="30.987483" style="fill: #d62728; stroke: #d62728; stroke-linejoin: miter"/>
     <use xlink:href="#m8edbca2e85" x="76.127128" y="24.945148" style="fill: #d62728; stroke: #d62728; stroke-linejoin: miter"/>
     <use xlink:href="#m8edbca2e85" x="65.447702" y="18.854083" style="fill: #d62728; stroke: #d62728; stroke-linejoin: miter"/>
    </g>
   </g>
   <g id="line2d_67">
    <path d="M 161.562534 62.950194 
L 150.883109 59.101553 
L 140.203683 55.127421 
L 129.524257 50.262566 
L 118.844831 45.364785 
L 108.165405 40.433911 
L 97.485979 35.469776 
L 86.806554 30.472213 
L 76.127128 24.962433 
L 65.447702 18.874612 
" clip-path="url(#p1b12228af6)" style="fill: none; stroke: #2ca02c; stroke-width: 0.65; stroke-linecap: square"/>
    <defs>
     <path id="mc985490f22" d="M -0 0.6 
L 0.6 -0.6 
L -0.6 -0.6 
z
" style="stroke: #2ca02c; stroke-linejoin: miter"/>
    </defs>
    <g clip-path="url(#p1b12228af6)">
     <use xlink:href="#mc985490f22" x="161.562534" y="62.950194" style="fill: #2ca02c; stroke: #2ca02c; stroke-linejoin: miter"/>
     <use xlink:href="#mc985490f22" x="150.883109" y="59.101553" style="fill: #2ca02c; stroke: #2ca02c; stroke-linejoin: miter"/>
     <use xlink:href="#mc985490f22" x="140.203683" y="55.127421" style="fill: #2ca02c; stroke: #2ca02c; stroke-linejoin: miter"/>
     <use xlink:href="#mc985490f22" x="129.524257" y="50.262566" style="fill: #2ca02c; stroke: #2ca02c; stroke-linejoin: miter"/>
     <use xlink:href="#mc985490f22" x="118.844831" y="45.364785" style="fill: #2ca02c; stroke: #2ca02c; stroke-linejoin: miter"/>
     <use xlink:href="#mc985490f22" x="108.165405" y="40.433911" style="fill: #2ca02c; stroke: #2ca02c; stroke-linejoin: miter"/>
     <use xlink:href="#mc985490f22" x="97.485979" y="35.469776" style="fill: #2ca02c; stroke: #2ca02c; stroke-linejoin: miter"/>
     <use xlink:href="#mc985490f22" x="86.806554" y="30.472213" style="fill: #2ca02c; stroke: #2ca02c; stroke-linejoin: miter"/>
     <use xlink:href="#mc985490f22" x="76.127128" y="24.962433" style="fill: #2ca02c; stroke: #2ca02c; stroke-linejoin: miter"/>
     <use xlink:href="#mc985490f22" x="65.447702" y="18.874612" style="fill: #2ca02c; stroke: #2ca02c; stroke-linejoin: miter"/>
    </g>
   </g>
   <g id="line2d_68">
    <path d="M 161.562534 65.201501 
L 150.883109 60.279506 
L 140.203683 55.321767 
L 129.524257 50.328076 
L 118.844831 45.298225 
L 108.165405 40.232005 
L 97.485979 35.129206 
L 86.806554 29.989618 
L 76.127128 24.813027 
L 65.447702 18.861806 
" clip-path="url(#p1b12228af6)" style="fill: none; stroke: #e377c2; stroke-width: 0.65; stroke-linecap: square"/>
    <defs>
     <path id="m79665bfba5" d="M 0 -0.6 
L -0.134708 -0.18541 
L -0.570634 -0.18541 
L -0.217963 0.07082 
L -0.352671 0.48541 
L -0 0.22918 
L 0.352671 0.48541 
L 0.217963 0.07082 
L 0.570634 -0.18541 
L 0.134708 -0.18541 
z
" style="stroke: #e377c2; stroke-linejoin: bevel"/>
    </defs>
    <g clip-path="url(#p1b12228af6)">
     <use xlink:href="#m79665bfba5" x="161.562534" y="65.201501" style="fill: #e377c2; stroke: #e377c2; stroke-linejoin: bevel"/>
     <use xlink:href="#m79665bfba5" x="150.883109" y="60.279506" style="fill: #e377c2; stroke: #e377c2; stroke-linejoin: bevel"/>
     <use xlink:href="#m79665bfba5" x="140.203683" y="55.321767" style="fill: #e377c2; stroke: #e377c2; stroke-linejoin: bevel"/>
     <use xlink:href="#m79665bfba5" x="129.524257" y="50.328076" style="fill: #e377c2; stroke: #e377c2; stroke-linejoin: bevel"/>
     <use xlink:href="#m79665bfba5" x="118.844831" y="45.298225" style="fill: #e377c2; stroke: #e377c2; stroke-linejoin: bevel"/>
     <use xlink:href="#m79665bfba5" x="108.165405" y="40.232005" style="fill: #e377c2; stroke: #e377c2; stroke-linejoin: bevel"/>
     <use xlink:href="#m79665bfba5" x="97.485979" y="35.129206" style="fill: #e377c2; stroke: #e377c2; stroke-linejoin: bevel"/>
     <use xlink:href="#m79665bfba5" x="86.806554" y="29.989618" style="fill: #e377c2; stroke: #e377c2; stroke-linejoin: bevel"/>
     <use xlink:href="#m79665bfba5" x="76.127128" y="24.813027" style="fill: #e377c2; stroke: #e377c2; stroke-linejoin: bevel"/>
     <use xlink:href="#m79665bfba5" x="65.447702" y="18.861806" style="fill: #e377c2; stroke: #e377c2; stroke-linejoin: bevel"/>
    </g>
   </g>
   <g id="patch_3">
    <path d="M 54.768276 79.692787 
L 54.768276 15.936787 
" style="fill: none; stroke: #000000; stroke-width: 0.5; stroke-linejoin: miter; stroke-linecap: square"/>
   </g>
   <g id="patch_4">
    <path d="M 166.368276 79.692787 
L 166.368276 15.936787 
" style="fill: none; stroke: #000000; stroke-width: 0.5; stroke-linejoin: miter; stroke-linecap: square"/>
   </g>
   <g id="patch_5">
    <path d="M 54.768276 79.692787 
L 166.368276 79.692787 
" style="fill: none; stroke: #000000; stroke-width: 0.5; stroke-linejoin: miter; stroke-linecap: square"/>
   </g>
   <g id="patch_6">
    <path d="M 54.768276 15.936787 
L 166.368276 15.936787 
" style="fill: none; stroke: #000000; stroke-width: 0.5; stroke-linejoin: miter; stroke-linecap: square"/>
   </g>
   <g id="text_12">
    <!-- $\sqrt[n]{iSwap}$ Expected Total Fidelity -->
    <g transform="translate(49.760987 9.936787) scale(0.08 -0.08)">
     <defs>
      <path id="CMMI12-6e" d="M 1318 1871 
C 1331 1910 1491 2229 1728 2433 
C 1894 2586 2112 2689 2362 2689 
C 2618 2689 2707 2497 2707 2242 
C 2707 1878 2445 1150 2317 805 
C 2259 651 2227 568 2227 453 
C 2227 166 2426 -64 2733 -64 
C 3328 -64 3552 875 3552 913 
C 3552 945 3526 971 3488 971 
C 3430 971 3424 952 3392 843 
C 3245 319 3002 64 2752 64 
C 2688 64 2586 64 2586 269 
C 2586 429 2656 621 2694 710 
C 2822 1063 3091 1780 3091 2145 
C 3091 2528 2867 2816 2381 2816 
C 1811 2816 1510 2415 1395 2255 
C 1376 2618 1114 2816 832 2816 
C 627 2816 486 2695 378 2478 
C 262 2248 173 1865 173 1839 
C 173 1814 198 1782 243 1782 
C 294 1782 301 1788 339 1935 
C 442 2325 557 2689 813 2689 
C 960 2689 1011 2586 1011 2395 
C 1011 2254 947 2005 902 1807 
L 723 1118 
C 698 996 627 709 595 594 
C 550 428 480 128 480 96 
C 480 6 550 -64 646 -64 
C 723 -64 813 -26 864 70 
C 877 102 934 326 966 453 
L 1107 1028 
L 1318 1871 
z
" transform="scale(0.015625)"/>
      <path id="CMSY10-70" d="M 2490 -5472 
L 1363 -2982 
C 1318 -2880 1286 -2880 1267 -2880 
C 1261 -2880 1229 -2880 1158 -2931 
L 550 -3392 
C 467 -3456 467 -3475 467 -3494 
C 467 -3526 486 -3565 531 -3565 
C 570 -3565 678 -3475 749 -3424 
C 787 -3393 883 -3323 954 -3271 
L 2214 -6042 
C 2259 -6144 2291 -6144 2349 -6144 
C 2445 -6144 2464 -6106 2509 -6016 
L 5414 0 
C 5459 90 5459 115 5459 128 
C 5459 192 5408 256 5331 256 
C 5280 256 5235 224 5184 122 
L 2490 -5472 
z
" transform="scale(0.015625)"/>
      <path id="CMMI12-69" d="M 1811 913 
C 1811 945 1786 971 1747 971 
C 1690 971 1683 952 1651 843 
C 1485 262 1222 64 1011 64 
C 934 64 845 83 845 275 
C 845 447 922 639 992 830 
L 1440 2018 
C 1459 2069 1504 2184 1504 2305 
C 1504 2574 1312 2816 998 2816 
C 410 2816 173 1890 173 1839 
C 173 1814 198 1782 243 1782 
C 301 1782 307 1807 333 1896 
C 486 2428 730 2682 979 2682 
C 1037 2682 1146 2682 1146 2478 
C 1146 2312 1062 2101 1011 1961 
L 563 773 
C 525 671 486 568 486 453 
C 486 166 685 -64 992 -64 
C 1581 -64 1811 869 1811 913 
z
M 1760 4013 
C 1760 4109 1683 4224 1542 4224 
C 1395 4224 1229 4083 1229 3917 
C 1229 3758 1363 3707 1440 3707 
C 1613 3707 1760 3873 1760 4013 
z
" transform="scale(0.015625)"/>
      <path id="CMMI12-53" d="M 4064 4423 
C 4064 4480 4019 4480 4006 4480 
C 3981 4480 3974 4474 3898 4378 
C 3859 4333 3597 4001 3590 3995 
C 3379 4410 2957 4480 2688 4480 
C 1875 4480 1139 3743 1139 3025 
C 1139 2549 1427 2269 1741 2161 
C 1811 2135 2189 2033 2381 1989 
C 2707 1900 2790 1875 2925 1735 
C 2950 1703 3078 1557 3078 1258 
C 3078 667 2528 57 1888 57 
C 1363 57 781 280 781 991 
C 781 1112 806 1265 826 1328 
C 826 1348 832 1378 832 1391 
C 832 1417 819 1449 768 1449 
C 710 1449 704 1436 678 1328 
L 352 24 
C 352 18 326 -64 326 -71 
C 326 -128 378 -128 390 -128 
C 416 -128 422 -122 499 -26 
L 794 356 
C 947 126 1280 -128 1875 -128 
C 2701 -128 3456 666 3456 1460 
C 3456 1728 3392 1963 3149 2197 
C 3014 2331 2899 2363 2310 2516 
C 1882 2630 1824 2649 1709 2751 
C 1600 2858 1517 3011 1517 3227 
C 1517 3761 2061 4308 2669 4308 
C 3296 4308 3590 3926 3590 3323 
C 3590 3158 3558 2986 3558 2961 
C 3558 2903 3610 2903 3629 2903 
C 3686 2903 3693 2922 3718 3024 
L 4064 4423 
z
" transform="scale(0.015625)"/>
      <path id="CMMI12-77" d="M 2202 390 
C 2342 6 2739 -64 2982 -64 
C 3469 -64 3757 358 3936 798 
C 4083 1169 4320 2012 4320 2389 
C 4320 2778 4122 2816 4064 2816 
C 3910 2816 3770 2663 3770 2535 
C 3770 2459 3814 2414 3846 2389 
C 3904 2331 4070 2159 4070 1827 
C 4070 1609 3891 1009 3757 709 
C 3578 319 3341 64 3008 64 
C 2650 64 2534 332 2534 626 
C 2534 811 2592 1035 2618 1143 
L 2886 2216 
C 2918 2344 2976 2567 2976 2593 
C 2976 2689 2899 2753 2803 2753 
C 2618 2753 2573 2593 2534 2440 
C 2470 2191 2202 1111 2176 971 
C 2150 862 2150 792 2150 651 
C 2150 498 1946 255 1939 243 
C 1869 172 1766 64 1568 64 
C 1062 64 1062 543 1062 651 
C 1062 856 1107 1137 1395 1897 
C 1472 2095 1504 2178 1504 2305 
C 1504 2574 1312 2816 998 2816 
C 410 2816 173 1890 173 1839 
C 173 1814 198 1782 243 1782 
C 301 1782 307 1807 333 1896 
C 493 2454 742 2682 979 2682 
C 1043 2682 1146 2682 1146 2478 
C 1146 2446 1146 2312 1037 2031 
C 736 1233 672 971 672 728 
C 672 57 1222 -64 1549 -64 
C 1658 -64 1946 -64 2202 390 
z
" transform="scale(0.015625)"/>
      <path id="CMMI12-61" d="M 1926 760 
C 1894 651 1894 639 1805 517 
C 1664 338 1382 64 1082 64 
C 819 64 672 300 672 677 
C 672 1028 870 1743 992 2012 
C 1210 2459 1510 2689 1760 2689 
C 2182 2689 2266 2165 2266 2114 
C 2266 2108 2246 2024 2240 2012 
L 1926 760 
z
M 2336 2395 
C 2266 2561 2093 2816 1760 2816 
C 1037 2816 256 1884 256 939 
C 256 307 627 -64 1062 -64 
C 1414 -64 1715 211 1894 422 
C 1958 45 2259 -64 2451 -64 
C 2643 -64 2797 51 2912 281 
C 3014 498 3104 888 3104 913 
C 3104 945 3078 971 3040 971 
C 2982 971 2976 939 2950 843 
C 2854 466 2733 64 2470 64 
C 2285 64 2272 230 2272 358 
C 2272 505 2291 575 2349 824 
C 2394 984 2426 1124 2477 1309 
C 2714 2267 2771 2497 2771 2535 
C 2771 2625 2701 2695 2605 2695 
C 2400 2695 2349 2472 2336 2395 
z
" transform="scale(0.015625)"/>
      <path id="CMMI12-70" d="M 275 -789 
C 230 -980 205 -1031 -58 -1031 
C -134 -1031 -198 -1031 -198 -1152 
C -198 -1165 -192 -1216 -122 -1216 
C -38 -1216 51 -1216 134 -1216 
L 410 -1216 
C 544 -1216 870 -1216 1005 -1216 
C 1043 -1216 1120 -1216 1120 -1101 
C 1120 -1031 1075 -1031 966 -1031 
C 672 -1031 653 -987 653 -937 
C 653 -861 941 219 979 364 
C 1050 185 1222 -64 1555 -64 
C 2278 -64 3059 875 3059 1814 
C 3059 2401 2726 2816 2246 2816 
C 1837 2816 1491 2420 1421 2331 
C 1370 2650 1120 2816 864 2816 
C 678 2816 531 2727 410 2484 
C 294 2254 205 1865 205 1839 
C 205 1814 230 1782 275 1782 
C 326 1782 333 1788 371 1935 
C 467 2312 589 2689 845 2689 
C 992 2689 1043 2587 1043 2397 
C 1043 2245 1024 2181 998 2067 
L 275 -789 
z
M 1382 1993 
C 1427 2171 1606 2357 1709 2446 
C 1779 2510 1990 2689 2234 2689 
C 2515 2689 2643 2408 2643 2076 
C 2643 1769 2464 1047 2304 715 
C 2144 370 1850 64 1555 64 
C 1120 64 1050 613 1050 639 
C 1050 658 1062 709 1069 741 
L 1382 1993 
z
" transform="scale(0.015625)"/>
      <path id="CMR17-45" d="M 3885 1615 
L 3770 1615 
C 3629 676 3546 166 2419 166 
L 1530 166 
C 1274 166 1261 197 1261 414 
L 1261 2176 
L 1862 2176 
C 2464 2176 2522 1960 2522 1430 
L 2637 1430 
L 2637 3081 
L 2522 3081 
C 2522 2557 2464 2342 1862 2342 
L 1261 2342 
L 1261 3913 
C 1261 4128 1274 4160 1530 4160 
L 2406 4160 
C 3398 4160 3514 3769 3603 2929 
L 3718 2929 
L 3565 4325 
L 326 4325 
L 326 4160 
C 768 4160 838 4160 838 3874 
L 838 451 
C 838 166 768 166 326 166 
L 326 0 
L 3654 0 
L 3885 1615 
z
" transform="scale(0.015625)"/>
      <path id="CMR17-78" d="M 1664 1477 
C 1856 1726 2074 2006 2253 2216 
C 2464 2458 2707 2560 2989 2560 
L 2989 2726 
C 2880 2726 2656 2726 2541 2726 
C 2368 2726 2170 2726 2022 2732 
L 2022 2566 
C 2112 2553 2163 2489 2163 2400 
C 2163 2285 2099 2215 2067 2171 
L 1594 1573 
L 1030 2306 
C 973 2376 973 2388 973 2420 
C 973 2497 1037 2560 1146 2560 
L 1146 2732 
C 992 2726 717 2726 557 2726 
C 384 2726 179 2726 38 2732 
L 38 2560 
C 384 2560 461 2534 614 2343 
L 1350 1395 
C 1363 1382 1395 1344 1395 1325 
C 1395 1299 838 619 768 530 
C 480 185 179 160 6 160 
L 6 0 
C 115 0 339 0 454 0 
C 582 0 864 0 979 -6 
L 979 160 
C 941 166 838 179 838 325 
C 838 440 890 510 947 586 
L 1478 1236 
L 2035 512 
C 2086 442 2163 346 2163 301 
C 2163 211 2086 160 1984 160 
L 1984 -6 
C 2138 0 2413 0 2573 0 
C 2746 0 2950 0 3091 -6 
L 3091 160 
C 2771 160 2675 172 2522 370 
L 1664 1477 
z
" transform="scale(0.015625)"/>
      <path id="CMR17-70" d="M 1408 -1063 
C 998 -1063 973 -1037 973 -789 
L 973 402 
C 1158 134 1427 -38 1766 -38 
C 2406 -38 3053 523 3053 1388 
C 3053 2191 2496 2802 1837 2802 
C 1453 2802 1139 2592 960 2338 
L 960 2802 
L 198 2732 
L 198 2567 
C 576 2567 634 2528 634 2223 
L 634 -789 
C 634 -1031 608 -1063 198 -1063 
L 198 -1228 
C 352 -1216 634 -1216 800 -1216 
C 966 -1216 1254 -1216 1408 -1228 
L 1408 -1063 
z
M 973 2012 
C 973 2102 973 2235 1222 2471 
C 1254 2497 1472 2688 1792 2688 
C 2259 2688 2643 2108 2643 1382 
C 2643 656 2234 64 1728 64 
C 1498 64 1248 172 1056 472 
C 973 612 973 650 973 752 
L 973 2012 
z
" transform="scale(0.015625)"/>
      <path id="CMR17-63" d="M 2234 2240 
C 2112 2240 1933 2240 1933 2017 
C 1933 1838 2080 1787 2163 1787 
C 2208 1787 2394 1807 2394 2024 
C 2394 2467 1958 2803 1466 2803 
C 787 2803 211 2178 211 1363 
C 211 516 813 -64 1466 -64 
C 2259 -64 2458 677 2458 748 
C 2458 774 2451 793 2406 793 
C 2362 793 2355 787 2330 703 
C 2163 180 1798 51 1523 51 
C 1114 51 621 427 621 1369 
C 621 2338 1094 2688 1472 2688 
C 1722 2688 2093 2573 2234 2240 
z
" transform="scale(0.015625)"/>
     </defs>
     <use xlink:href="#CMMI12-6e" transform="translate(26.233001 36.994799) scale(0.498132)"/>
     <use xlink:href="#CMSY10-70" transform="translate(0 74.664466) scale(0.996264)"/>
     <use xlink:href="#CMMI12-69" transform="translate(83.022254 0) scale(0.996264)"/>
     <use xlink:href="#CMMI12-53" transform="translate(116.300856 0) scale(0.996264)"/>
     <use xlink:href="#CMMI12-77" transform="translate(182.095295 0) scale(0.996264)"/>
     <use xlink:href="#CMMI12-61" transform="translate(254.50821 0) scale(0.996264)"/>
     <use xlink:href="#CMMI12-70" transform="translate(305.716068 0) scale(0.996264)"/>
     <use xlink:href="#CMR17-45" transform="translate(384.751548 0) scale(0.996264)"/>
     <use xlink:href="#CMR17-78" transform="translate(447.337849 0) scale(0.996264)"/>
     <use xlink:href="#CMR17-70" transform="translate(495.630765 0) scale(0.996264)"/>
     <use xlink:href="#CMR17-65" transform="translate(549.128573 0) scale(0.996264)"/>
     <use xlink:href="#CMR17-63" transform="translate(589.614233 0) scale(0.996264)"/>
     <use xlink:href="#CMR17-74" transform="translate(630.099894 0) scale(0.996264)"/>
     <use xlink:href="#CMR17-65" transform="translate(665.380662 0) scale(0.996264)"/>
     <use xlink:href="#CMR17-64" transform="translate(705.866322 0) scale(0.996264)"/>
     <use xlink:href="#CMR17-54" transform="translate(786.837658 0) scale(0.996264)"/>
     <use xlink:href="#CMR17-6f" transform="translate(845.540284 0) scale(0.996264)"/>
     <use xlink:href="#CMR17-74" transform="translate(891.230761 0) scale(0.996264)"/>
     <use xlink:href="#CMR17-61" transform="translate(926.511528 0) scale(0.996264)"/>
     <use xlink:href="#CMR17-6c" transform="translate(972.202006 0) scale(0.996264)"/>
     <use xlink:href="#CMR17-46" transform="translate(1027.14903 0) scale(0.996264)"/>
     <use xlink:href="#CMR17-69" transform="translate(1087.132877 0) scale(0.996264)"/>
     <use xlink:href="#CMR17-64" transform="translate(1112.003935 0) scale(0.996264)"/>
     <use xlink:href="#CMR17-65" transform="translate(1162.899305 0) scale(0.996264)"/>
     <use xlink:href="#CMR17-6c" transform="translate(1203.384966 0) scale(0.996264)"/>
     <use xlink:href="#CMR17-69" transform="translate(1228.256024 0) scale(0.996264)"/>
     <use xlink:href="#CMR17-74" transform="translate(1253.127083 0) scale(0.996264)"/>
     <use xlink:href="#CMR17-79" transform="translate(1285.805397 0) scale(0.996264)"/>
     <path d="M 83.022254 74.664466 
L 354.675582 74.664466 
L 354.675582 78.649416 
L 83.022254 78.649416 
L 83.022254 74.664466 
z
"/>
    </g>
   </g>
   <g id="legend_1">
    <g id="LineCollection_7">
     <path d="M 12 105.571072 
L 12 99.571072 
" style="fill: none; stroke: #1f77b4; stroke-width: 0.5"/>
    </g>
    <g id="line2d_69">
     <g>
      <use xlink:href="#m0816b6b395" x="12" y="105.571072" style="fill: #1f77b4; stroke: #1f77b4"/>
     </g>
    </g>
    <g id="line2d_70">
     <g>
      <use xlink:href="#m0816b6b395" x="12" y="99.571072" style="fill: #1f77b4; stroke: #1f77b4"/>
     </g>
    </g>
    <g id="line2d_71">
     <path d="M 6 102.571072 
L 18 102.571072 
" style="fill: none; stroke: #1f77b4; stroke-width: 0.65; stroke-linecap: square"/>
    </g>
    <g id="line2d_72">
     <g>
      <use xlink:href="#m4d6e819be5" x="12" y="102.571072" style="fill: #1f77b4; stroke: #1f77b4"/>
     </g>
    </g>
    <g id="text_13">
     <!-- $\sqrt[2]{iSwap}$ -->
     <g transform="translate(22.8 104.671072) scale(0.06 -0.06)">
      <use xlink:href="#CMR17-32" transform="translate(32.502779 36.994799) scale(0.498132)"/>
      <use xlink:href="#CMSY10-70" transform="translate(0 74.664466) scale(0.996264)"/>
      <use xlink:href="#CMMI12-69" transform="translate(83.022254 0) scale(0.996264)"/>
      <use xlink:href="#CMMI12-53" transform="translate(116.300856 0) scale(0.996264)"/>
      <use xlink:href="#CMMI12-77" transform="translate(182.095295 0) scale(0.996264)"/>
      <use xlink:href="#CMMI12-61" transform="translate(254.50821 0) scale(0.996264)"/>
      <use xlink:href="#CMMI12-70" transform="translate(305.716068 0) scale(0.996264)"/>
      <path d="M 83.022254 74.664466 
L 354.675582 74.664466 
L 354.675582 78.649416 
L 83.022254 78.649416 
L 83.022254 74.664466 
z
"/>
     </g>
    </g>
    <g id="LineCollection_8">
     <path d="M 12 115.314765 
L 12 109.314765 
" style="fill: none; stroke: #bcbd22; stroke-width: 0.5"/>
    </g>
    <g id="line2d_73">
     <g>
      <use xlink:href="#mcce2caa89e" x="12" y="115.314765" style="fill: #bcbd22; stroke: #bcbd22"/>
     </g>
    </g>
    <g id="line2d_74">
     <g>
      <use xlink:href="#mcce2caa89e" x="12" y="109.314765" style="fill: #bcbd22; stroke: #bcbd22"/>
     </g>
    </g>
    <g id="line2d_75">
     <path d="M 6 112.314765 
L 18 112.314765 
" style="fill: none; stroke: #bcbd22; stroke-width: 0.65; stroke-linecap: square"/>
    </g>
    <g id="line2d_76">
     <g>
      <use xlink:href="#mdd33474d27" x="12" y="112.314765" style="fill: #bcbd22; stroke: #bcbd22; stroke-linejoin: miter"/>
     </g>
    </g>
    <g id="text_14">
     <!-- $\sqrt[3]{iSwap}$ -->
     <g transform="translate(22.8 114.414765) scale(0.06 -0.06)">
      <defs>
       <path id="CMR17-33" d="M 1414 2157 
C 1984 2157 2234 1662 2234 1090 
C 2234 320 1824 25 1453 25 
C 1114 25 563 194 390 693 
C 422 680 454 680 486 680 
C 640 680 755 782 755 948 
C 755 1133 614 1216 486 1216 
C 378 1216 211 1165 211 926 
C 211 335 787 -128 1466 -128 
C 2176 -128 2720 430 2720 1085 
C 2720 1707 2208 2157 1600 2227 
C 2086 2328 2554 2756 2554 3329 
C 2554 3820 2048 4179 1472 4179 
C 890 4179 378 3829 378 3329 
C 378 3110 544 3072 627 3072 
C 762 3072 877 3155 877 3321 
C 877 3486 762 3569 627 3569 
C 602 3569 570 3569 544 3557 
C 730 3959 1235 4032 1459 4032 
C 1683 4032 2106 3925 2106 3320 
C 2106 3143 2080 2828 1862 2550 
C 1670 2304 1453 2304 1242 2284 
C 1210 2284 1062 2269 1037 2269 
C 992 2263 966 2257 966 2208 
C 966 2163 973 2157 1101 2157 
L 1414 2157 
z
" transform="scale(0.015625)"/>
      </defs>
      <use xlink:href="#CMR17-33" transform="translate(32.502779 36.994799) scale(0.498132)"/>
      <use xlink:href="#CMSY10-70" transform="translate(0 74.664466) scale(0.996264)"/>
      <use xlink:href="#CMMI12-69" transform="translate(83.022254 0) scale(0.996264)"/>
      <use xlink:href="#CMMI12-53" transform="translate(116.300856 0) scale(0.996264)"/>
      <use xlink:href="#CMMI12-77" transform="translate(182.095295 0) scale(0.996264)"/>
      <use xlink:href="#CMMI12-61" transform="translate(254.50821 0) scale(0.996264)"/>
      <use xlink:href="#CMMI12-70" transform="translate(305.716068 0) scale(0.996264)"/>
      <path d="M 83.022254 74.664466 
L 354.675582 74.664466 
L 354.675582 78.649416 
L 83.022254 78.649416 
L 83.022254 74.664466 
z
"/>
     </g>
    </g>
    <g id="LineCollection_9">
     <path d="M 67.656092 105.571072 
L 67.656092 99.571072 
" style="fill: none; stroke: #9467bd; stroke-width: 0.5"/>
    </g>
    <g id="line2d_77">
     <g>
      <use xlink:href="#m63dbe5028b" x="67.656092" y="105.571072" style="fill: #9467bd; stroke: #9467bd"/>
     </g>
    </g>
    <g id="line2d_78">
     <g>
      <use xlink:href="#m63dbe5028b" x="67.656092" y="99.571072" style="fill: #9467bd; stroke: #9467bd"/>
     </g>
    </g>
    <g id="line2d_79">
     <path d="M 61.656092 102.571072 
L 73.656092 102.571072 
" style="fill: none; stroke: #9467bd; stroke-width: 0.65; stroke-linecap: square"/>
    </g>
    <g id="line2d_80">
     <g>
      <use xlink:href="#macfcad6f83" x="67.656092" y="102.571072" style="fill: #9467bd; stroke: #9467bd; stroke-linejoin: miter"/>
     </g>
    </g>
    <g id="text_15">
     <!-- $\sqrt[4]{iSwap}$ -->
     <g transform="translate(78.456092 104.671072) scale(0.06 -0.06)">
      <defs>
       <path id="CMR17-34" d="M 2150 4122 
C 2150 4256 2144 4256 2029 4256 
L 128 1254 
L 128 1088 
L 1779 1088 
L 1779 457 
C 1779 224 1766 160 1318 160 
L 1197 160 
L 1197 0 
C 1402 0 1747 0 1965 0 
C 2182 0 2528 0 2733 0 
L 2733 160 
L 2611 160 
C 2163 160 2150 224 2150 457 
L 2150 1088 
L 2803 1088 
L 2803 1254 
L 2150 1254 
L 2150 4122 
z
M 1798 3703 
L 1798 1254 
L 256 1254 
L 1798 3703 
z
" transform="scale(0.015625)"/>
      </defs>
      <use xlink:href="#CMR17-34" transform="translate(32.502779 36.994799) scale(0.498132)"/>
      <use xlink:href="#CMSY10-70" transform="translate(0 74.664466) scale(0.996264)"/>
      <use xlink:href="#CMMI12-69" transform="translate(83.022254 0) scale(0.996264)"/>
      <use xlink:href="#CMMI12-53" transform="translate(116.300856 0) scale(0.996264)"/>
      <use xlink:href="#CMMI12-77" transform="translate(182.095295 0) scale(0.996264)"/>
      <use xlink:href="#CMMI12-61" transform="translate(254.50821 0) scale(0.996264)"/>
      <use xlink:href="#CMMI12-70" transform="translate(305.716068 0) scale(0.996264)"/>
      <path d="M 83.022254 74.664466 
L 354.675582 74.664466 
L 354.675582 78.649416 
L 83.022254 78.649416 
L 83.022254 74.664466 
z
"/>
     </g>
    </g>
    <g id="LineCollection_10">
     <path d="M 67.656092 115.314765 
L 67.656092 109.314765 
" style="fill: none; stroke: #d62728; stroke-width: 0.5"/>
    </g>
    <g id="line2d_81">
     <g>
      <use xlink:href="#m3f48b17e2d" x="67.656092" y="115.314765" style="fill: #d62728; stroke: #d62728"/>
     </g>
    </g>
    <g id="line2d_82">
     <g>
      <use xlink:href="#m3f48b17e2d" x="67.656092" y="109.314765" style="fill: #d62728; stroke: #d62728"/>
     </g>
    </g>
    <g id="line2d_83">
     <path d="M 61.656092 112.314765 
L 73.656092 112.314765 
" style="fill: none; stroke: #d62728; stroke-width: 0.65; stroke-linecap: square"/>
    </g>
    <g id="line2d_84">
     <g>
      <use xlink:href="#m8edbca2e85" x="67.656092" y="112.314765" style="fill: #d62728; stroke: #d62728; stroke-linejoin: miter"/>
     </g>
    </g>
    <g id="text_16">
     <!-- $\sqrt[5]{iSwap}$ -->
     <g transform="translate(78.456092 114.414765) scale(0.06 -0.06)">
      <use xlink:href="#CMR17-35" transform="translate(32.502779 36.994799) scale(0.498132)"/>
      <use xlink:href="#CMSY10-70" transform="translate(0 74.664466) scale(0.996264)"/>
      <use xlink:href="#CMMI12-69" transform="translate(83.022254 0) scale(0.996264)"/>
      <use xlink:href="#CMMI12-53" transform="translate(116.300856 0) scale(0.996264)"/>
      <use xlink:href="#CMMI12-77" transform="translate(182.095295 0) scale(0.996264)"/>
      <use xlink:href="#CMMI12-61" transform="translate(254.50821 0) scale(0.996264)"/>
      <use xlink:href="#CMMI12-70" transform="translate(305.716068 0) scale(0.996264)"/>
      <path d="M 83.022254 74.664466 
L 354.675582 74.664466 
L 354.675582 78.649416 
L 83.022254 78.649416 
L 83.022254 74.664466 
z
"/>
     </g>
    </g>
    <g id="LineCollection_11">
     <path d="M 123.312184 105.571072 
L 123.312184 99.571072 
" style="fill: none; stroke: #2ca02c; stroke-width: 0.5"/>
    </g>
    <g id="line2d_85">
     <g>
      <use xlink:href="#m34287a2ce8" x="123.312184" y="105.571072" style="fill: #2ca02c; stroke: #2ca02c"/>
     </g>
    </g>
    <g id="line2d_86">
     <g>
      <use xlink:href="#m34287a2ce8" x="123.312184" y="99.571072" style="fill: #2ca02c; stroke: #2ca02c"/>
     </g>
    </g>
    <g id="line2d_87">
     <path d="M 117.312184 102.571072 
L 129.312184 102.571072 
" style="fill: none; stroke: #2ca02c; stroke-width: 0.65; stroke-linecap: square"/>
    </g>
    <g id="line2d_88">
     <g>
      <use xlink:href="#mc985490f22" x="123.312184" y="102.571072" style="fill: #2ca02c; stroke: #2ca02c; stroke-linejoin: miter"/>
     </g>
    </g>
    <g id="text_17">
     <!-- $\sqrt[6]{iSwap}$ -->
     <g transform="translate(134.112184 104.671072) scale(0.06 -0.06)">
      <defs>
       <path id="CMR17-36" d="M 678 2176 
C 678 3690 1395 4032 1811 4032 
C 1946 4032 2272 4009 2400 3776 
C 2298 3776 2106 3776 2106 3553 
C 2106 3381 2246 3323 2336 3323 
C 2394 3323 2566 3348 2566 3560 
C 2566 3954 2246 4179 1805 4179 
C 1043 4179 243 3390 243 1984 
C 243 253 966 -128 1478 -128 
C 2099 -128 2688 427 2688 1283 
C 2688 2081 2170 2662 1517 2662 
C 1126 2662 838 2407 678 1960 
L 678 2176 
z
M 1478 25 
C 691 25 691 1200 691 1436 
C 691 1896 909 2560 1504 2560 
C 1613 2560 1926 2560 2138 2120 
C 2253 1870 2253 1609 2253 1289 
C 2253 944 2253 690 2118 434 
C 1978 171 1773 25 1478 25 
z
" transform="scale(0.015625)"/>
      </defs>
      <use xlink:href="#CMR17-36" transform="translate(32.502779 36.994799) scale(0.498132)"/>
      <use xlink:href="#CMSY10-70" transform="translate(0 74.664466) scale(0.996264)"/>
      <use xlink:href="#CMMI12-69" transform="translate(83.022254 0) scale(0.996264)"/>
      <use xlink:href="#CMMI12-53" transform="translate(116.300856 0) scale(0.996264)"/>
      <use xlink:href="#CMMI12-77" transform="translate(182.095295 0) scale(0.996264)"/>
      <use xlink:href="#CMMI12-61" transform="translate(254.50821 0) scale(0.996264)"/>
      <use xlink:href="#CMMI12-70" transform="translate(305.716068 0) scale(0.996264)"/>
      <path d="M 83.022254 74.664466 
L 354.675582 74.664466 
L 354.675582 78.649416 
L 83.022254 78.649416 
L 83.022254 74.664466 
z
"/>
     </g>
    </g>
    <g id="LineCollection_12">
     <path d="M 123.312184 115.314765 
L 123.312184 109.314765 
" style="fill: none; stroke: #e377c2; stroke-width: 0.5"/>
    </g>
    <g id="line2d_89">
     <g>
      <use xlink:href="#me3cf415b14" x="123.312184" y="115.314765" style="fill: #e377c2; stroke: #e377c2"/>
     </g>
    </g>
    <g id="line2d_90">
     <g>
      <use xlink:href="#me3cf415b14" x="123.312184" y="109.314765" style="fill: #e377c2; stroke: #e377c2"/>
     </g>
    </g>
    <g id="line2d_91">
     <path d="M 117.312184 112.314765 
L 129.312184 112.314765 
" style="fill: none; stroke: #e377c2; stroke-width: 0.65; stroke-linecap: square"/>
    </g>
    <g id="line2d_92">
     <g>
      <use xlink:href="#m79665bfba5" x="123.312184" y="112.314765" style="fill: #e377c2; stroke: #e377c2; stroke-linejoin: bevel"/>
     </g>
    </g>
    <g id="text_18">
     <!-- $\sqrt[7]{iSwap}$ -->
     <g transform="translate(134.112184 114.414765) scale(0.06 -0.06)">
      <use xlink:href="#CMR17-37" transform="translate(32.502779 36.994799) scale(0.498132)"/>
      <use xlink:href="#CMSY10-70" transform="translate(0 74.664466) scale(0.996264)"/>
      <use xlink:href="#CMMI12-69" transform="translate(83.022254 0) scale(0.996264)"/>
      <use xlink:href="#CMMI12-53" transform="translate(116.300856 0) scale(0.996264)"/>
      <use xlink:href="#CMMI12-77" transform="translate(182.095295 0) scale(0.996264)"/>
      <use xlink:href="#CMMI12-61" transform="translate(254.50821 0) scale(0.996264)"/>
      <use xlink:href="#CMMI12-70" transform="translate(305.716068 0) scale(0.996264)"/>
      <path d="M 83.022254 74.664466 
L 354.675582 74.664466 
L 354.675582 78.649416 
L 83.022254 78.649416 
L 83.022254 74.664466 
z
"/>
     </g>
    </g>
   </g>
  </g>
 </g>
 <defs>
  <clipPath id="p1b12228af6">
   <rect x="54.768276" y="15.936787" width="111.6" height="63.756"/>
  </clipPath>
 </defs>
</svg>
