<?xml version="1.0" encoding="utf-8" standalone="no"?>
<!DOCTYPE svg PUBLIC "-//W3C//DTD SVG 1.1//EN"
  "http://www.w3.org/Graphics/SVG/1.1/DTD/svg11.dtd">
<svg xmlns:xlink="http://www.w3.org/1999/xlink" width="432pt" height="288pt" viewBox="0 0 432 288" xmlns="http://www.w3.org/2000/svg" version="1.1">
 <metadata>
  <rdf:RDF xmlns:dc="http://purl.org/dc/elements/1.1/" xmlns:cc="http://creativecommons.org/ns#" xmlns:rdf="http://www.w3.org/1999/02/22-rdf-syntax-ns#">
   <cc:Work>
    <dc:type rdf:resource="http://purl.org/dc/dcmitype/StillImage"/>
    <dc:date>2022-09-09T14:12:36.947820</dc:date>
    <dc:format>image/svg+xml</dc:format>
    <dc:creator>
     <cc:Agent>
      <dc:title>Matplotlib v3.5.1, https://matplotlib.org/</dc:title>
     </cc:Agent>
    </dc:creator>
   </cc:Work>
  </rdf:RDF>
 </metadata>
 <defs>
  <style type="text/css">*{stroke-linejoin: round; stroke-linecap: butt}</style>
 </defs>
 <g id="figure_1">
  <g id="patch_1">
   <path d="M 0 288 
L 432 288 
L 432 0 
L 0 0 
L 0 288 
z
" style="fill: none"/>
  </g>
  <g id="patch_2">
   <path d="M 112.68 252 
L 330.12 252 
L 330.12 34.56 
L 112.68 34.56 
L 112.68 252 
z
" style="fill: none"/>
  </g>
  <g id="pane3d_1">
   <g id="patch_3">
    <path d="M 126.593097 192.163605 
L 216.456602 154.596489 
L 216.23029 62.283418 
L 123.540546 92.93358 
" style="fill: none; opacity: 0"/>
   </g>
  </g>
  <g id="pane3d_2">
   <g id="patch_4">
    <path d="M 216.456602 154.596489 
L 320.76512 185.693817 
L 323.734621 87.644342 
L 216.23029 62.283418 
" style="fill: none; opacity: 0"/>
   </g>
  </g>
  <g id="pane3d_3">
   <g id="patch_5">
    <path d="M 126.593097 192.163605 
L 233.546625 228.991271 
L 320.76512 185.693817 
L 216.456602 154.596489 
" style="fill: none; opacity: 0"/>
   </g>
  </g>
  <g id="axis3d_1">
   <g id="line2d_1">
    <path d="M 126.593097 192.163605 
L 233.546625 228.991271 
" style="fill: none; stroke: #000000; stroke-width: 0.8; stroke-linecap: square"/>
   </g>
   <g id="text_1">
    <!-- $c_1$ -->
    <g transform="translate(162.185535 226.078789)rotate(-340.999706)scale(0.1 -0.1)">
     <defs>
      <path id="DejaVuSans-Oblique-63" d="M 3431 3366 
L 3316 2797 
Q 3109 2947 2876 3022 
Q 2644 3097 2394 3097 
Q 2119 3097 1870 3000 
Q 1622 2903 1453 2725 
Q 1184 2453 1037 2087 
Q 891 1722 891 1331 
Q 891 859 1127 628 
Q 1363 397 1844 397 
Q 2081 397 2348 469 
Q 2616 541 2906 684 
L 2797 116 
Q 2547 13 2283 -39 
Q 2019 -91 1741 -91 
Q 1044 -91 669 257 
Q 294 606 294 1253 
Q 294 1797 489 2255 
Q 684 2713 1069 3078 
Q 1331 3328 1684 3456 
Q 2038 3584 2456 3584 
Q 2700 3584 2940 3529 
Q 3181 3475 3431 3366 
z
" transform="scale(0.015625)"/>
      <path id="DejaVuSans-31" d="M 794 531 
L 1825 531 
L 1825 4091 
L 703 3866 
L 703 4441 
L 1819 4666 
L 2450 4666 
L 2450 531 
L 3481 531 
L 3481 0 
L 794 0 
L 794 531 
z
" transform="scale(0.015625)"/>
     </defs>
     <use xlink:href="#DejaVuSans-Oblique-63"/>
     <use xlink:href="#DejaVuSans-31" transform="translate(54.980469 -16.40625)scale(0.7)"/>
    </g>
   </g>
   <g id="xtick_1">
    <g id="line2d_2">
     <path d="M 129.3617 192.521824 
L 127.020814 193.503523 
" style="fill: none; stroke: #000000; stroke-width: 0.8; stroke-linecap: square"/>
    </g>
    <g id="text_2">
     <!-- 0 -->
     <g transform="translate(123.729553 202.872669)scale(0.1 -0.1)">
      <defs>
       <path id="DejaVuSans-30" d="M 2034 4250 
Q 1547 4250 1301 3770 
Q 1056 3291 1056 2328 
Q 1056 1369 1301 889 
Q 1547 409 2034 409 
Q 2525 409 2770 889 
Q 3016 1369 3016 2328 
Q 3016 3291 2770 3770 
Q 2525 4250 2034 4250 
z
M 2034 4750 
Q 2819 4750 3233 4129 
Q 3647 3509 3647 2328 
Q 3647 1150 3233 529 
Q 2819 -91 2034 -91 
Q 1250 -91 836 529 
Q 422 1150 422 2328 
Q 422 3509 836 4129 
Q 1250 4750 2034 4750 
z
" transform="scale(0.015625)"/>
      </defs>
      <use xlink:href="#DejaVuSans-30"/>
     </g>
    </g>
   </g>
   <g id="xtick_2">
    <g id="line2d_3">
     <path d="M 153.681855 200.885694 
L 151.350703 201.901941 
" style="fill: none; stroke: #000000; stroke-width: 0.8; stroke-linecap: square"/>
    </g>
   </g>
   <g id="xtick_3">
    <g id="line2d_4">
     <path d="M 178.864633 209.546226 
L 176.545389 210.598877 
" style="fill: none; stroke: #000000; stroke-width: 0.8; stroke-linecap: square"/>
    </g>
    <g id="text_3">
     <!-- $\pi/2$ -->
     <g transform="translate(168.711228 220.02395)scale(0.1 -0.1)">
      <defs>
       <path id="DejaVuSans-Oblique-3c0" d="M 584 3500 
L 3938 3500 
L 3825 2925 
L 3384 2925 
L 2966 775 
Q 2922 550 2981 450 
Q 3038 353 3209 353 
Q 3256 353 3325 363 
Q 3397 369 3419 372 
L 3338 -44 
Q 3222 -84 3103 -103 
Q 2981 -122 2866 -122 
Q 2491 -122 2388 81 
Q 2284 288 2391 838 
L 2797 2925 
L 1506 2925 
L 938 0 
L 350 0 
L 919 2925 
L 472 2925 
L 584 3500 
z
" transform="scale(0.015625)"/>
       <path id="DejaVuSans-2f" d="M 1625 4666 
L 2156 4666 
L 531 -594 
L 0 -594 
L 1625 4666 
z
" transform="scale(0.015625)"/>
       <path id="DejaVuSans-32" d="M 1228 531 
L 3431 531 
L 3431 0 
L 469 0 
L 469 531 
Q 828 903 1448 1529 
Q 2069 2156 2228 2338 
Q 2531 2678 2651 2914 
Q 2772 3150 2772 3378 
Q 2772 3750 2511 3984 
Q 2250 4219 1831 4219 
Q 1534 4219 1204 4116 
Q 875 4013 500 3803 
L 500 4441 
Q 881 4594 1212 4672 
Q 1544 4750 1819 4750 
Q 2544 4750 2975 4387 
Q 3406 4025 3406 3419 
Q 3406 3131 3298 2873 
Q 3191 2616 2906 2266 
Q 2828 2175 2409 1742 
Q 1991 1309 1228 531 
z
" transform="scale(0.015625)"/>
      </defs>
      <use xlink:href="#DejaVuSans-Oblique-3c0" transform="translate(0 0.78125)"/>
      <use xlink:href="#DejaVuSans-2f" transform="translate(60.205078 0.78125)"/>
      <use xlink:href="#DejaVuSans-32" transform="translate(90.271484 0.78125)"/>
     </g>
    </g>
   </g>
   <g id="xtick_4">
    <g id="line2d_5">
     <path d="M 204.956758 218.519489 
L 202.651814 219.610537 
" style="fill: none; stroke: #000000; stroke-width: 0.8; stroke-linecap: square"/>
    </g>
   </g>
   <g id="xtick_5">
    <g id="line2d_6">
     <path d="M 232.008391 227.822734 
L 229.72038 228.954317 
" style="fill: none; stroke: #000000; stroke-width: 0.8; stroke-linecap: square"/>
    </g>
    <g id="text_4">
     <!-- $\pi$ -->
     <g transform="translate(226.508744 238.438902)scale(0.1 -0.1)">
      <use xlink:href="#DejaVuSans-Oblique-3c0" transform="translate(0 0.3125)"/>
     </g>
    </g>
   </g>
  </g>
  <g id="axis3d_2">
   <g id="line2d_7">
    <path d="M 320.76512 185.693817 
L 233.546625 228.991271 
" style="fill: none; stroke: #000000; stroke-width: 0.8; stroke-linecap: square"/>
   </g>
   <g id="text_5">
    <!-- $c_2$ -->
    <g transform="translate(282.604154 219.516762)rotate(-26.400958)scale(0.1 -0.1)">
     <use xlink:href="#DejaVuSans-Oblique-63"/>
     <use xlink:href="#DejaVuSans-32" transform="translate(54.980469 -16.40625)scale(0.7)"/>
    </g>
   </g>
   <g id="xtick_6">
    <g id="line2d_8">
     <path d="M 234.526897 227.731913 
L 237.291026 228.680754 
" style="fill: none; stroke: #000000; stroke-width: 0.8; stroke-linecap: square"/>
    </g>
    <g id="text_6">
     <!-- 0 -->
     <g transform="translate(239.506083 235.822219)scale(0.1 -0.1)">
      <use xlink:href="#DejaVuSans-30"/>
     </g>
    </g>
   </g>
   <g id="xtick_7">
    <g id="line2d_9">
     <path d="M 252.429731 218.857807 
L 255.178565 219.774212 
" style="fill: none; stroke: #000000; stroke-width: 0.8; stroke-linecap: square"/>
    </g>
   </g>
   <g id="xtick_8">
    <g id="line2d_10">
     <path d="M 269.726251 210.284239 
L 272.459229 211.169844 
" style="fill: none; stroke: #000000; stroke-width: 0.8; stroke-linecap: square"/>
    </g>
   </g>
   <g id="xtick_9">
    <g id="line2d_11">
     <path d="M 286.446744 201.996197 
L 289.163389 202.852529 
" style="fill: none; stroke: #000000; stroke-width: 0.8; stroke-linecap: square"/>
    </g>
   </g>
   <g id="xtick_10">
    <g id="line2d_12">
     <path d="M 302.619516 193.979651 
L 305.31942 194.808137 
" style="fill: none; stroke: #000000; stroke-width: 0.8; stroke-linecap: square"/>
    </g>
   </g>
   <g id="xtick_11">
    <g id="line2d_13">
     <path d="M 318.271044 186.221475 
L 320.953866 187.023452 
" style="fill: none; stroke: #000000; stroke-width: 0.8; stroke-linecap: square"/>
    </g>
    <g id="text_7">
     <!-- $\pi/2$ -->
     <g transform="translate(323.015598 193.798428)scale(0.1 -0.1)">
      <use xlink:href="#DejaVuSans-Oblique-3c0" transform="translate(0 0.78125)"/>
      <use xlink:href="#DejaVuSans-2f" transform="translate(60.205078 0.78125)"/>
      <use xlink:href="#DejaVuSans-32" transform="translate(90.271484 0.78125)"/>
     </g>
    </g>
   </g>
  </g>
  <g id="axis3d_3">
   <g id="line2d_14">
    <path d="M 126.593097 192.163605 
L 123.540546 92.93358 
" style="fill: none; stroke: #000000; stroke-width: 0.8; stroke-linecap: square"/>
   </g>
   <g id="text_8">
    <!-- $c_3$ -->
    <g transform="translate(115.484798 148.831403)rotate(-90)scale(0.1 -0.1)">
     <defs>
      <path id="DejaVuSans-33" d="M 2597 2516 
Q 3050 2419 3304 2112 
Q 3559 1806 3559 1356 
Q 3559 666 3084 287 
Q 2609 -91 1734 -91 
Q 1441 -91 1130 -33 
Q 819 25 488 141 
L 488 750 
Q 750 597 1062 519 
Q 1375 441 1716 441 
Q 2309 441 2620 675 
Q 2931 909 2931 1356 
Q 2931 1769 2642 2001 
Q 2353 2234 1838 2234 
L 1294 2234 
L 1294 2753 
L 1863 2753 
Q 2328 2753 2575 2939 
Q 2822 3125 2822 3475 
Q 2822 3834 2567 4026 
Q 2313 4219 1838 4219 
Q 1578 4219 1281 4162 
Q 984 4106 628 3988 
L 628 4550 
Q 988 4650 1302 4700 
Q 1616 4750 1894 4750 
Q 2613 4750 3031 4423 
Q 3450 4097 3450 3541 
Q 3450 3153 3228 2886 
Q 3006 2619 2597 2516 
z
" transform="scale(0.015625)"/>
     </defs>
     <use xlink:href="#DejaVuSans-Oblique-63"/>
     <use xlink:href="#DejaVuSans-33" transform="translate(54.980469 -16.40625)scale(0.7)"/>
    </g>
   </g>
   <g id="xtick_12">
    <g id="line2d_15">
     <path d="M 127.329374 190.510774 
L 124.945551 189.693205 
" style="fill: none; stroke: #000000; stroke-width: 0.8; stroke-linecap: square"/>
    </g>
    <g id="text_9">
     <!-- 0 -->
     <g transform="translate(113.211802 193.228274)scale(0.1 -0.1)">
      <use xlink:href="#DejaVuSans-30"/>
     </g>
    </g>
   </g>
   <g id="xtick_13">
    <g id="line2d_16">
     <path d="M 126.761344 171.895841 
L 124.364563 171.105521 
" style="fill: none; stroke: #000000; stroke-width: 0.8; stroke-linecap: square"/>
    </g>
   </g>
   <g id="xtick_14">
    <g id="line2d_17">
     <path d="M 126.186622 153.061628 
L 123.776743 152.299256 
" style="fill: none; stroke: #000000; stroke-width: 0.8; stroke-linecap: square"/>
    </g>
   </g>
   <g id="xtick_15">
    <g id="line2d_18">
     <path d="M 125.605089 134.004235 
L 123.18197 133.270531 
" style="fill: none; stroke: #000000; stroke-width: 0.8; stroke-linecap: square"/>
    </g>
   </g>
   <g id="xtick_16">
    <g id="line2d_19">
     <path d="M 125.016625 114.719674 
L 122.58012 114.015376 
" style="fill: none; stroke: #000000; stroke-width: 0.8; stroke-linecap: square"/>
    </g>
   </g>
   <g id="xtick_17">
    <g id="line2d_20">
     <path d="M 124.421104 95.203856 
L 121.971065 94.529724 
" style="fill: none; stroke: #000000; stroke-width: 0.8; stroke-linecap: square"/>
    </g>
    <g id="text_10">
     <!-- $\pi/2$ -->
     <g transform="translate(101.033824 97.928701)scale(0.1 -0.1)">
      <use xlink:href="#DejaVuSans-Oblique-3c0" transform="translate(0 0.78125)"/>
      <use xlink:href="#DejaVuSans-2f" transform="translate(60.205078 0.78125)"/>
      <use xlink:href="#DejaVuSans-32" transform="translate(90.271484 0.78125)"/>
     </g>
    </g>
   </g>
  </g>
  <g id="axes_1">
   <g id="line2d_21">
    <path d="M 130.471726 190.107257 
L 265.228534 168.507698 
" clip-path="url(#peca201b830)" style="fill: none; stroke-dasharray: 1.85,0.8; stroke-dashoffset: 0; stroke: #000000; stroke-width: 0.5"/>
   </g>
   <g id="line2d_22">
    <path d="M 250.130328 195.201393 
L 179.992779 207.03875 
" clip-path="url(#peca201b830)" style="fill: none; stroke-dasharray: 1.85,0.8; stroke-dashoffset: 0; stroke: #000000; stroke-width: 0.5"/>
   </g>
   <g id="line2d_23">
    <path d="M 199.409119 179.057594 
L 179.992779 207.03875 
" clip-path="url(#peca201b830)" style="fill: none; stroke-dasharray: 1.85,0.8; stroke-dashoffset: 0; stroke: #000000; stroke-width: 0.5"/>
   </g>
   <g id="line2d_24">
    <path d="M 199.049905 133.084109 
L 199.409119 179.057594 
" clip-path="url(#peca201b830)" style="fill: none; stroke-dasharray: 1.85,0.8; stroke-dashoffset: 0; stroke: #000000; stroke-width: 0.5"/>
   </g>
   <g id="line2d_25">
    <path d="M 199.049905 133.084109 
L 265.228534 168.507698 
" clip-path="url(#peca201b830)" style="fill: none; stroke-dasharray: 1.85,0.8; stroke-dashoffset: 0; stroke: #000000; stroke-width: 0.5"/>
   </g>
   <g id="line2d_26">
    <path d="M 130.471726 190.107257 
L 233.154371 225.214961 
" clip-path="url(#peca201b830)" style="fill: none; stroke: #000000; stroke-width: 0.5; stroke-linecap: square"/>
   </g>
   <g id="line2d_27">
    <path d="M 233.154371 225.214961 
L 265.228534 168.507698 
" clip-path="url(#peca201b830)" style="fill: none; stroke: #000000; stroke-width: 0.5; stroke-linecap: square"/>
   </g>
   <g id="line2d_28">
    <path d="M 265.228534 168.507698 
L 266.396351 77.085153 
" clip-path="url(#peca201b830)" style="fill: none; stroke: #000000; stroke-width: 0.5; stroke-linecap: square"/>
   </g>
   <g id="line2d_29">
    <path d="M 266.396351 77.085153 
L 233.154371 225.214961 
" clip-path="url(#peca201b830)" style="fill: none; stroke: #000000; stroke-width: 0.5; stroke-linecap: square"/>
   </g>
   <g id="line2d_30">
    <path d="M 266.396351 77.085153 
L 130.471726 190.107257 
" clip-path="url(#peca201b830)" style="fill: none; stroke: #000000; stroke-width: 0.5; stroke-linecap: square"/>
   </g>
   <g id="line2d_31">
    <path d="M 179.992779 207.03875 
L 250.515026 147.854031 
" clip-path="url(#peca201b830)" style="fill: none; stroke: #000000; stroke-width: 0.5; stroke-linecap: square"/>
   </g>
   <g id="line2d_32">
    <path d="M 179.992779 207.03875 
L 199.049905 133.084109 
" clip-path="url(#peca201b830)" style="fill: none; stroke: #000000; stroke-width: 0.5; stroke-linecap: square"/>
   </g>
   <g id="line2d_33">
    <path d="M 250.515026 147.854031 
L 199.049905 133.084109 
" clip-path="url(#peca201b830)" style="fill: none; stroke: #000000; stroke-width: 0.5; stroke-linecap: square"/>
   </g>
   <g id="line2d_34">
    <path d="M 250.515026 147.854031 
L 265.228534 168.507698 
" clip-path="url(#peca201b830)" style="fill: none; stroke: #000000; stroke-width: 0.5; stroke-linecap: square"/>
   </g>
   <g id="line2d_35">
    <path d="M 250.515026 147.854031 
L 250.130328 195.201393 
" clip-path="url(#peca201b830)" style="fill: none; stroke: #000000; stroke-width: 0.5; stroke-linecap: square"/>
   </g>
   <g id="Path3DCollection_1">
    <defs>
     <path id="m21e0c7acc3" d="M 0 3 
C 0.795609 3 1.55874 2.683901 2.12132 2.12132 
C 2.683901 1.55874 3 0.795609 3 0 
C 3 -0.795609 2.683901 -1.55874 2.12132 -2.12132 
C 1.55874 -2.683901 0.795609 -3 0 -3 
C -0.795609 -3 -1.55874 -2.683901 -2.12132 -2.12132 
C -2.683901 -1.55874 -3 -0.795609 -3 0 
C -3 0.795609 -2.683901 1.55874 -2.12132 2.12132 
C -1.55874 2.683901 -0.795609 3 0 3 
z
" style="stroke: #17becf"/>
    </defs>
    <g clip-path="url(#peca201b830)">
     <use xlink:href="#m21e0c7acc3" x="130.471726" y="190.107257" style="fill: #17becf; stroke: #17becf"/>
    </g>
   </g>
   <g id="Path3DCollection_2">
    <defs>
     <path id="m68628eeac8" d="M 0 0.67082 
C 0.177904 0.67082 0.348545 0.600139 0.474342 0.474342 
C 0.600139 0.348545 0.67082 0.177904 0.67082 0 
C 0.67082 -0.177904 0.600139 -0.348545 0.474342 -0.474342 
C 0.348545 -0.600139 0.177904 -0.67082 0 -0.67082 
C -0.177904 -0.67082 -0.348545 -0.600139 -0.474342 -0.474342 
C -0.600139 -0.348545 -0.67082 -0.177904 -0.67082 0 
C -0.67082 0.177904 -0.600139 0.348545 -0.474342 0.474342 
C -0.348545 0.600139 -0.177904 0.67082 0 0.67082 
z
" style="stroke: #1f77b4"/>
    </defs>
    <g clip-path="url(#peca201b830)">
     <use xlink:href="#m68628eeac8" x="130.65857" y="190.17114" style="fill: #1f77b4; stroke: #1f77b4"/>
    </g>
   </g>
   <g id="Path3DCollection_3">
    <defs>
     <path id="ma5a7427b12" d="M 0 1.224745 
C 0.324806 1.224745 0.636353 1.095698 0.866025 0.866025 
C 1.095698 0.636353 1.224745 0.324806 1.224745 0 
C 1.224745 -0.324806 1.095698 -0.636353 0.866025 -0.866025 
C 0.636353 -1.095698 0.324806 -1.224745 0 -1.224745 
C -0.324806 -1.224745 -0.636353 -1.095698 -0.866025 -0.866025 
C -1.095698 -0.636353 -1.224745 -0.324806 -1.224745 0 
C -1.224745 0.324806 -1.095698 0.636353 -0.866025 0.866025 
C -0.636353 1.095698 -0.324806 1.224745 0 1.224745 
z
" style="stroke: #1f77b4"/>
    </defs>
    <g clip-path="url(#peca201b830)">
     <use xlink:href="#ma5a7427b12" x="130.845462" y="190.23504" style="fill: #1f77b4; stroke: #1f77b4"/>
    </g>
   </g>
   <g id="Path3DCollection_4">
    <defs>
     <path id="m52b177425a" d="M 0 1.81659 
C 0.481765 1.81659 0.943864 1.625183 1.284523 1.284523 
C 1.625183 0.943864 1.81659 0.481765 1.81659 0 
C 1.81659 -0.481765 1.625183 -0.943864 1.284523 -1.284523 
C 0.943864 -1.625183 0.481765 -1.81659 0 -1.81659 
C -0.481765 -1.81659 -0.943864 -1.625183 -1.284523 -1.284523 
C -1.625183 -0.943864 -1.81659 -0.481765 -1.81659 0 
C -1.81659 0.481765 -1.625183 0.943864 -1.284523 1.284523 
C -0.943864 1.625183 -0.481765 1.81659 0 1.81659 
z
" style="stroke: #8c564b"/>
    </defs>
    <g clip-path="url(#peca201b830)">
     <use xlink:href="#m52b177425a" x="131.219399" y="190.36289" style="fill: #8c564b; stroke: #8c564b"/>
    </g>
   </g>
   <g id="Path3DCollection_5">
    <defs>
     <path id="ma68506fb58" d="M 0 2.32379 
C 0.616276 2.32379 1.207395 2.078941 1.643168 1.643168 
C 2.078941 1.207395 2.32379 0.616276 2.32379 0 
C 2.32379 -0.616276 2.078941 -1.207395 1.643168 -1.643168 
C 1.207395 -2.078941 0.616276 -2.32379 0 -2.32379 
C -0.616276 -2.32379 -1.207395 -2.078941 -1.643168 -1.643168 
C -2.078941 -1.207395 -2.32379 -0.616276 -2.32379 0 
C -2.32379 0.616276 -2.078941 1.207395 -1.643168 1.643168 
C -1.207395 2.078941 -0.616276 2.32379 0 2.32379 
z
" style="stroke: #7f7f7f"/>
    </defs>
    <g clip-path="url(#peca201b830)">
     <use xlink:href="#ma68506fb58" x="131.967872" y="190.618797" style="fill: #7f7f7f; stroke: #7f7f7f"/>
    </g>
   </g>
   <g id="Path3DCollection_6">
    <defs>
     <path id="mce360cd44b" d="M 0 2.539685 
C 0.673532 2.539685 1.319569 2.272088 1.795828 1.795828 
C 2.272088 1.319569 2.539685 0.673532 2.539685 0 
C 2.539685 -0.673532 2.272088 -1.319569 1.795828 -1.795828 
C 1.319569 -2.272088 0.673532 -2.539685 0 -2.539685 
C -0.673532 -2.539685 -1.319569 -2.272088 -1.795828 -1.795828 
C -2.272088 -1.319569 -2.539685 -0.673532 -2.539685 0 
C -2.539685 0.673532 -2.272088 1.319569 -1.795828 1.795828 
C -1.319569 2.272088 -0.673532 2.539685 0 2.539685 
z
" style="stroke: #ff7f0e"/>
    </defs>
    <g clip-path="url(#peca201b830)">
     <use xlink:href="#mce360cd44b" x="133.467226" y="191.131434" style="fill: #ff7f0e; stroke: #ff7f0e"/>
    </g>
   </g>
   <g id="Path3DCollection_7">
    <defs>
     <path id="m6a14a878e0" d="M 0 3.286335 
C 0.871546 3.286335 1.707514 2.940066 2.32379 2.32379 
C 2.940066 1.707514 3.286335 0.871546 3.286335 0 
C 3.286335 -0.871546 2.940066 -1.707514 2.32379 -2.32379 
C 1.707514 -2.940066 0.871546 -3.286335 0 -3.286335 
C -0.871546 -3.286335 -1.707514 -2.940066 -2.32379 -2.32379 
C -2.940066 -1.707514 -3.286335 -0.871546 -3.286335 0 
C -3.286335 0.871546 -2.940066 1.707514 -2.32379 2.32379 
C -1.707514 2.940066 -0.871546 3.286335 0 3.286335 
z
" style="stroke: #9467bd"/>
    </defs>
    <g clip-path="url(#peca201b830)">
     <use xlink:href="#m6a14a878e0" x="135.270702" y="191.748051" style="fill: #9467bd; stroke: #9467bd"/>
    </g>
   </g>
   <g id="Path3DCollection_8">
    <defs>
     <path id="ma3a3f11829" d="M 0 2.872281 
C 0.761738 2.872281 1.49238 2.56964 2.03101 2.03101 
C 2.56964 1.49238 2.872281 0.761738 2.872281 0 
C 2.872281 -0.761738 2.56964 -1.49238 2.03101 -2.03101 
C 1.49238 -2.56964 0.761738 -2.872281 0 -2.872281 
C -0.761738 -2.872281 -1.49238 -2.56964 -2.03101 -2.03101 
C -2.56964 -1.49238 -2.872281 -0.761738 -2.872281 0 
C -2.872281 0.761738 -2.56964 1.49238 -2.03101 2.03101 
C -1.49238 2.56964 -0.761738 2.872281 0 2.872281 
z
" style="stroke: #9467bd"/>
    </defs>
    <g clip-path="url(#peca201b830)">
     <use xlink:href="#ma3a3f11829" x="136.475603" y="192.160013" style="fill: #9467bd; stroke: #9467bd"/>
    </g>
   </g>
   <g id="Path3DCollection_9">
    <defs>
     <path id="m03af8a7e79" d="M 0 2.84605 
C 0.754781 2.84605 1.47875 2.546172 2.012461 2.012461 
C 2.546172 1.47875 2.84605 0.754781 2.84605 0 
C 2.84605 -0.754781 2.546172 -1.47875 2.012461 -2.012461 
C 1.47875 -2.546172 0.754781 -2.84605 0 -2.84605 
C -0.754781 -2.84605 -1.47875 -2.546172 -2.012461 -2.012461 
C -2.546172 -1.47875 -2.84605 -0.754781 -2.84605 0 
C -2.84605 0.754781 -2.546172 1.47875 -2.012461 2.012461 
C -1.47875 2.546172 -0.754781 2.84605 0 2.84605 
z
" style="stroke: #e377c2"/>
    </defs>
    <g clip-path="url(#peca201b830)">
     <use xlink:href="#m03af8a7e79" x="142.531316" y="194.230491" style="fill: #e377c2; stroke: #e377c2"/>
    </g>
   </g>
   <g id="Path3DCollection_10">
    <defs>
     <path id="mdd93713076" d="M 0 3.04959 
C 0.808761 3.04959 1.584506 2.728266 2.156386 2.156386 
C 2.728266 1.584506 3.04959 0.808761 3.04959 0 
C 3.04959 -0.808761 2.728266 -1.584506 2.156386 -2.156386 
C 1.584506 -2.728266 0.808761 -3.04959 0 -3.04959 
C -0.808761 -3.04959 -1.584506 -2.728266 -2.156386 -2.156386 
C -2.728266 -1.584506 -3.04959 -0.808761 -3.04959 0 
C -3.04959 0.808761 -2.728266 1.584506 -2.156386 2.156386 
C -1.584506 2.728266 -0.808761 3.04959 0 3.04959 
z
" style="stroke: #d62728"/>
    </defs>
    <g clip-path="url(#peca201b830)">
     <use xlink:href="#mdd93713076" x="154.800965" y="198.425545" style="fill: #d62728; stroke: #d62728"/>
    </g>
   </g>
   <g id="Path3DCollection_11">
    <defs>
     <path id="mc3c8b5e529" d="M 0 1.095445 
C 0.290515 1.095445 0.569171 0.980022 0.774597 0.774597 
C 0.980022 0.569171 1.095445 0.290515 1.095445 0 
C 1.095445 -0.290515 0.980022 -0.569171 0.774597 -0.774597 
C 0.569171 -0.980022 0.290515 -1.095445 0 -1.095445 
C -0.290515 -1.095445 -0.569171 -0.980022 -0.774597 -0.774597 
C -0.980022 -0.569171 -1.095445 -0.290515 -1.095445 0 
C -1.095445 0.290515 -0.980022 0.569171 -0.774597 0.774597 
C -0.569171 0.980022 -0.290515 1.095445 0 1.095445 
z
" style="stroke: #7f7f7f"/>
    </defs>
    <g clip-path="url(#peca201b830)">
     <use xlink:href="#mc3c8b5e529" x="166.116362" y="202.294335" style="fill: #7f7f7f; stroke: #7f7f7f"/>
    </g>
   </g>
   <g id="Path3DCollection_12">
    <defs>
     <path id="mdf67de1e71" d="M 0 7.755643 
C 2.056821 7.755643 4.029676 6.93846 5.484068 5.484068 
C 6.93846 4.029676 7.755643 2.056821 7.755643 0 
C 7.755643 -2.056821 6.93846 -4.029676 5.484068 -5.484068 
C 4.029676 -6.93846 2.056821 -7.755643 0 -7.755643 
C -2.056821 -7.755643 -4.029676 -6.93846 -5.484068 -5.484068 
C -6.93846 -4.029676 -7.755643 -2.056821 -7.755643 0 
C -7.755643 2.056821 -6.93846 4.029676 -5.484068 5.484068 
C -4.029676 6.93846 -2.056821 7.755643 0 7.755643 
z
" style="stroke: #d62728"/>
    </defs>
    <g clip-path="url(#peca201b830)">
     <use xlink:href="#mdf67de1e71" x="179.992779" y="207.03875" style="fill: #d62728; stroke: #d62728"/>
    </g>
   </g>
   <g id="Path3DCollection_13">
    <defs>
     <path id="m5c1573a466" d="M 0 4.09878 
C 1.087009 4.09878 2.129644 3.666907 2.898275 2.898275 
C 3.666907 2.129644 4.09878 1.087009 4.09878 0 
C 4.09878 -1.087009 3.666907 -2.129644 2.898275 -2.898275 
C 2.129644 -3.666907 1.087009 -4.09878 0 -4.09878 
C -1.087009 -4.09878 -2.129644 -3.666907 -2.898275 -2.898275 
C -3.666907 -2.129644 -4.09878 -1.087009 -4.09878 0 
C -4.09878 1.087009 -3.666907 2.129644 -2.898275 2.898275 
C -2.129644 3.666907 -1.087009 4.09878 0 4.09878 
z
" style="stroke: #8c564b"/>
    </defs>
    <g clip-path="url(#peca201b830)">
     <use xlink:href="#m5c1573a466" x="194.140683" y="211.875988" style="fill: #8c564b; stroke: #8c564b"/>
    </g>
   </g>
   <g id="Path3DCollection_14">
    <defs>
     <path id="m4d71cf115d" d="M 0 1.449138 
C 0.384316 1.449138 0.752943 1.296447 1.024695 1.024695 
C 1.296447 0.752943 1.449138 0.384316 1.449138 0 
C 1.449138 -0.384316 1.296447 -0.752943 1.024695 -1.024695 
C 0.752943 -1.296447 0.384316 -1.449138 0 -1.449138 
C -0.384316 -1.449138 -0.752943 -1.296447 -1.024695 -1.024695 
C -1.296447 -0.752943 -1.449138 -0.384316 -1.449138 0 
C -1.449138 0.384316 -1.296447 0.752943 -1.024695 1.024695 
C -0.752943 1.296447 -0.384316 1.449138 0 1.449138 
z
" style="stroke: #2ca02c"/>
    </defs>
    <g clip-path="url(#peca201b830)">
     <use xlink:href="#m4d71cf115d" x="206.09387" y="215.962842" style="fill: #2ca02c; stroke: #2ca02c"/>
    </g>
   </g>
   <g id="Path3DCollection_15">
    <defs>
     <path id="m9bd46cccf7" d="M 0 0.948683 
C 0.251594 0.948683 0.492917 0.848724 0.67082 0.67082 
C 0.848724 0.492917 0.948683 0.251594 0.948683 0 
C 0.948683 -0.251594 0.848724 -0.492917 0.67082 -0.67082 
C 0.492917 -0.848724 0.251594 -0.948683 0 -0.948683 
C -0.251594 -0.948683 -0.492917 -0.848724 -0.67082 -0.67082 
C -0.848724 -0.492917 -0.948683 -0.251594 -0.948683 0 
C -0.948683 0.251594 -0.848724 0.492917 -0.67082 0.67082 
C -0.492917 0.848724 -0.251594 0.948683 0 0.948683 
z
" style="stroke: #bcbd22"/>
    </defs>
    <g clip-path="url(#peca201b830)">
     <use xlink:href="#m9bd46cccf7" x="219.500918" y="220.546778" style="fill: #bcbd22; stroke: #bcbd22"/>
    </g>
   </g>
   <g id="Path3DCollection_16">
    <defs>
     <path id="m606eec7832" d="M 0 0.67082 
C 0.177904 0.67082 0.348545 0.600139 0.474342 0.474342 
C 0.600139 0.348545 0.67082 0.177904 0.67082 0 
C 0.67082 -0.177904 0.600139 -0.348545 0.474342 -0.474342 
C 0.348545 -0.600139 0.177904 -0.67082 0 -0.67082 
C -0.177904 -0.67082 -0.348545 -0.600139 -0.474342 -0.474342 
C -0.600139 -0.348545 -0.67082 -0.177904 -0.67082 0 
C -0.67082 0.177904 -0.600139 0.348545 -0.474342 0.474342 
C -0.348545 0.600139 -0.177904 0.67082 0 0.67082 
z
" style="stroke: #2ca02c"/>
    </defs>
    <g clip-path="url(#peca201b830)">
     <use xlink:href="#m606eec7832" x="227.662988" y="223.337431" style="fill: #2ca02c; stroke: #2ca02c"/>
    </g>
   </g>
   <g id="Path3DCollection_17">
    <defs>
     <path id="m93d0ca7230" d="M 0 0.774597 
C 0.205425 0.774597 0.402465 0.69298 0.547723 0.547723 
C 0.69298 0.402465 0.774597 0.205425 0.774597 0 
C 0.774597 -0.205425 0.69298 -0.402465 0.547723 -0.547723 
C 0.402465 -0.69298 0.205425 -0.774597 0 -0.774597 
C -0.205425 -0.774597 -0.402465 -0.69298 -0.547723 -0.547723 
C -0.69298 -0.402465 -0.774597 -0.205425 -0.774597 0 
C -0.774597 0.205425 -0.69298 0.402465 -0.547723 0.547723 
C -0.402465 0.69298 -0.205425 0.774597 0 0.774597 
z
" style="stroke: #bcbd22"/>
    </defs>
    <g clip-path="url(#peca201b830)">
     <use xlink:href="#m93d0ca7230" x="229.717537" y="224.039891" style="fill: #bcbd22; stroke: #bcbd22"/>
    </g>
   </g>
   <g id="Path3DCollection_18">
    <defs>
     <path id="m607c908c1e" d="M 0 0.387298 
C 0.102713 0.387298 0.201232 0.34649 0.273861 0.273861 
C 0.34649 0.201232 0.387298 0.102713 0.387298 0 
C 0.387298 -0.102713 0.34649 -0.201232 0.273861 -0.273861 
C 0.201232 -0.34649 0.102713 -0.387298 0 -0.387298 
C -0.102713 -0.387298 -0.201232 -0.34649 -0.273861 -0.273861 
C -0.34649 -0.201232 -0.387298 -0.102713 -0.387298 0 
C -0.387298 0.102713 -0.34649 0.201232 -0.273861 0.273861 
C -0.201232 0.34649 -0.102713 0.387298 0 0.387298 
z
" style="stroke: #e377c2"/>
    </defs>
    <g clip-path="url(#peca201b830)">
     <use xlink:href="#m607c908c1e" x="232.723903" y="225.067782" style="fill: #e377c2; stroke: #e377c2"/>
    </g>
   </g>
   <g id="Path3DCollection_19">
    <defs>
     <path id="md7bde7fbab" d="M 0 2.418677 
C 0.641441 2.418677 1.256696 2.16383 1.710263 1.710263 
C 2.16383 1.256696 2.418677 0.641441 2.418677 0 
C 2.418677 -0.641441 2.16383 -1.256696 1.710263 -1.710263 
C 1.256696 -2.16383 0.641441 -2.418677 0 -2.418677 
C -0.641441 -2.418677 -1.256696 -2.16383 -1.710263 -1.710263 
C -2.16383 -1.256696 -2.418677 -0.641441 -2.418677 0 
C -2.418677 0.641441 -2.16383 1.256696 -1.710263 1.710263 
C -1.256696 2.16383 -0.641441 2.418677 0 2.418677 
z
" style="stroke: #ff7f0e"/>
    </defs>
    <g clip-path="url(#peca201b830)">
     <use xlink:href="#md7bde7fbab" x="233.154371" y="225.214961" style="fill: #ff7f0e; stroke: #ff7f0e"/>
    </g>
   </g>
  </g>
 </g>
 <defs>
  <clipPath id="peca201b830">
   <rect x="112.68" y="34.56" width="217.44" height="217.44"/>
  </clipPath>
 </defs>
</svg>
